<svg width="1440" height="953" viewBox="0 0 1440 953" fill="none" xmlns="http://www.w3.org/2000/svg">
<g clip-path="url(#clip0_28_2015)">
<rect y="-1" width="1440" height="953" fill="url(#paint0_linear_28_2015)"/>
<g opacity="0.48" filter="url(#filter0_b_28_2015)">
<circle cx="333.395" cy="333.395" r="332.395" transform="matrix(-0.965926 0.258819 0.258819 0.965926 1206.07 473)" fill="url(#paint1_angular_28_2015)" fill-opacity="0.32"/>
<circle cx="333.395" cy="333.395" r="332.395" transform="matrix(-0.965926 0.258819 0.258819 0.965926 1206.07 473)" fill="url(#paint2_radial_28_2015)" fill-opacity="0.24"/>
<circle cx="333.395" cy="333.395" r="332.395" transform="matrix(-0.965926 0.258819 0.258819 0.965926 1206.07 473)" stroke="url(#paint3_linear_28_2015)" stroke-width="2"/>
<circle cx="186.458" cy="186.458" r="185.458" transform="matrix(0.866025 0.5 0.5 -0.866025 715.615 949.572)" fill="url(#paint4_angular_28_2015)" fill-opacity="0.32"/>
<circle cx="186.458" cy="186.458" r="185.458" transform="matrix(0.866025 0.5 0.5 -0.866025 715.615 949.572)" fill="url(#paint5_radial_28_2015)" fill-opacity="0.12"/>
<circle cx="186.458" cy="186.458" r="185.458" transform="matrix(0.866025 0.5 0.5 -0.866025 715.615 949.572)" stroke="url(#paint6_linear_28_2015)" stroke-width="2"/>
<path d="M863.909 779.866L966.013 862.914L945.372 918.911L815.655 906.182L863.909 779.866Z" fill="url(#paint7_linear_28_2015)"/>
<ellipse cx="47.4713" cy="47.4743" rx="47.4713" ry="47.4743" transform="matrix(-0.915852 0.400836 0.427394 0.903692 997.394 831.072)" fill="white"/>
<ellipse cx="30.8563" cy="30.8583" rx="30.8563" ry="30.8583" transform="matrix(-0.971844 -0.234462 -0.205956 0.978216 1009.83 870.396)" fill="#FF9AF5"/>
</g>
<path fill-rule="evenodd" clip-rule="evenodd" d="M0 814.147C0 814.147 203.75 929.111 342.946 919.808C482.143 910.505 565.528 872.159 718.478 891.332C871.428 910.505 1315.06 862.133 1440 729V953H0V814.147Z" fill="#FDFDFF"/>
</g>
<defs>
<filter id="filter0_b_28_2015" x="625.846" y="536.846" width="688.955" height="688.955" filterUnits="userSpaceOnUse" color-interpolation-filters="sRGB">
<feFlood flood-opacity="0" result="BackgroundImageFix"/>
<feGaussianBlur in="BackgroundImageFix" stdDeviation="5.5"/>
<feComposite in2="SourceAlpha" operator="in" result="effect1_backgroundBlur_28_2015"/>
<feBlend mode="normal" in="SourceGraphic" in2="effect1_backgroundBlur_28_2015" result="shape"/>
</filter>
<linearGradient id="paint0_linear_28_2015" x1="724.281" y1="-471.833" x2="-154.968" y2="848.828" gradientUnits="userSpaceOnUse">
<stop stop-color="#DF7AFF"/>
<stop offset="0.394106" stop-color="#D7B1F6"/>
<stop offset="1" stop-color="#D578FF"/>
</linearGradient>
<radialGradient id="paint1_angular_28_2015" cx="0" cy="0" r="1" gradientUnits="userSpaceOnUse" gradientTransform="translate(333.395 333.395) rotate(90) scale(333.395)">
<stop stop-color="white"/>
<stop offset="1" stop-color="white" stop-opacity="0"/>
</radialGradient>
<radialGradient id="paint2_radial_28_2015" cx="0" cy="0" r="1" gradientUnits="userSpaceOnUse" gradientTransform="translate(333.395 333.395) rotate(90) scale(333.395)">
<stop stop-color="white" stop-opacity="0"/>
<stop offset="1" stop-color="white"/>
</radialGradient>
<linearGradient id="paint3_linear_28_2015" x1="333.395" y1="0" x2="333.395" y2="666.79" gradientUnits="userSpaceOnUse">
<stop stop-color="white" stop-opacity="0.6"/>
<stop offset="1" stop-color="white" stop-opacity="0"/>
</linearGradient>
<radialGradient id="paint4_angular_28_2015" cx="0" cy="0" r="1" gradientUnits="userSpaceOnUse" gradientTransform="translate(186.458 186.458) rotate(90) scale(186.458)">
<stop stop-color="white"/>
<stop offset="1" stop-color="white" stop-opacity="0"/>
</radialGradient>
<radialGradient id="paint5_radial_28_2015" cx="0" cy="0" r="1" gradientUnits="userSpaceOnUse" gradientTransform="translate(186.458 186.458) rotate(90) scale(186.458)">
<stop stop-color="white" stop-opacity="0"/>
<stop offset="1" stop-color="white"/>
</radialGradient>
<linearGradient id="paint6_linear_28_2015" x1="186.458" y1="0" x2="186.458" y2="372.916" gradientUnits="userSpaceOnUse">
<stop stop-color="white" stop-opacity="0.6"/>
<stop offset="1" stop-color="white" stop-opacity="0"/>
</linearGradient>
<linearGradient id="paint7_linear_28_2015" x1="831.635" y1="838.792" x2="1035.58" y2="912.654" gradientUnits="userSpaceOnUse">
<stop stop-color="#FFC0FF" stop-opacity="0"/>
<stop offset="1" stop-color="#E126FF"/>
</linearGradient>
<clipPath id="clip0_28_2015">
<rect width="1440" height="954" fill="white" transform="translate(0 -1)"/>
</clipPath>
</defs>
</svg>
