<svg width="1440" height="600" viewBox="0 0 1440 600" fill="none" xmlns="http://www.w3.org/2000/svg">
<mask id="mask0_290_1652" style="mask-type:alpha" maskUnits="userSpaceOnUse" x="119" y="0" width="1201" height="600">
<rect x="119.732" width="1200" height="600" fill="url(#paint0_radial_290_1652)"/>
</mask>
<g mask="url(#mask0_290_1652)">
</g>
<g clip-path="url(#clip0_290_1652)">
<rect opacity="0.32" x="119.732" y="-0.03125" width="1200" height="600" fill="url(#paint1_radial_290_1652)"/>
<g opacity="0.7">
<path opacity="0.11" d="M512.091 483.199C512.635 482.846 512.79 482.118 512.437 481.574C512.084 481.029 511.356 480.874 510.812 481.228C510.267 481.581 510.113 482.308 510.466 482.853C510.819 483.397 511.547 483.552 512.091 483.199Z" fill="white"/>
<path d="M518.806 486.541C519.214 486.277 519.33 485.731 519.065 485.323C518.8 484.915 518.255 484.799 517.846 485.063C517.438 485.328 517.322 485.874 517.587 486.282C517.852 486.69 518.397 486.806 518.806 486.541Z" fill="white"/>
<path d="M528.353 465.647C528.761 465.382 528.877 464.836 528.612 464.428C528.347 464.02 527.801 463.904 527.393 464.169C526.985 464.434 526.869 464.979 527.134 465.387C527.399 465.796 527.944 465.912 528.353 465.647Z" fill="white"/>
<path d="M485.838 491.834C486.246 491.57 486.362 491.024 486.097 490.616C485.832 490.208 485.287 490.091 484.879 490.356C484.471 490.621 484.354 491.167 484.619 491.575C484.884 491.983 485.43 492.099 485.838 491.834Z" fill="white"/>
<path opacity="0.11" d="M469.122 519.484C469.667 519.131 469.822 518.403 469.468 517.859C469.115 517.314 468.387 517.159 467.843 517.513C467.299 517.866 467.144 518.594 467.497 519.138C467.85 519.682 468.578 519.837 469.122 519.484Z" fill="white"/>
<path d="M452.733 514.718C453.005 514.542 453.082 514.178 452.906 513.906C452.729 513.634 452.366 513.557 452.094 513.733C451.822 513.91 451.745 514.273 451.921 514.545C452.098 514.817 452.461 514.894 452.733 514.718Z" fill="white"/>
<path d="M523.077 503.372C523.349 503.196 523.426 502.832 523.25 502.56C523.073 502.288 522.71 502.211 522.438 502.387C522.166 502.564 522.088 502.928 522.265 503.199C522.441 503.471 522.805 503.549 523.077 503.372Z" fill="white"/>
<path d="M630.475 433.679C630.747 433.502 630.825 433.139 630.648 432.867C630.472 432.595 630.108 432.518 629.836 432.694C629.564 432.871 629.487 433.234 629.663 433.506C629.84 433.778 630.203 433.855 630.475 433.679Z" fill="white"/>
<path d="M666.904 372.228C667.176 372.051 667.253 371.688 667.077 371.416C666.9 371.144 666.537 371.066 666.265 371.243C665.993 371.419 665.916 371.783 666.092 372.055C666.268 372.327 666.632 372.404 666.904 372.228Z" fill="white"/>
<path d="M709.459 395.722C709.731 395.545 709.808 395.182 709.631 394.91C709.455 394.638 709.091 394.561 708.82 394.737C708.548 394.914 708.47 395.277 708.647 395.549C708.823 395.821 709.187 395.898 709.459 395.722Z" fill="white"/>
<path d="M351.037 597.517C351.309 597.34 351.386 596.977 351.21 596.705C351.033 596.433 350.67 596.356 350.398 596.532C350.126 596.708 350.048 597.072 350.225 597.344C350.401 597.616 350.765 597.693 351.037 597.517Z" fill="white"/>
<path opacity="0.11" d="M326.388 575.708C326.66 575.532 326.738 575.168 326.561 574.896C326.385 574.624 326.021 574.547 325.749 574.723C325.477 574.9 325.4 575.263 325.576 575.535C325.753 575.807 326.116 575.885 326.388 575.708Z" fill="white"/>
<path opacity="0.11" d="M312.561 600.784C312.833 600.608 312.911 600.244 312.734 599.972C312.558 599.7 312.194 599.623 311.922 599.8C311.65 599.976 311.573 600.34 311.749 600.612C311.926 600.883 312.289 600.961 312.561 600.784Z" fill="white"/>
<path opacity="0.11" d="M452.45 523.999C452.722 523.823 452.799 523.459 452.623 523.187C452.446 522.915 452.083 522.838 451.811 523.014C451.539 523.191 451.461 523.554 451.638 523.826C451.814 524.098 452.178 524.176 452.45 523.999Z" fill="white"/>
<path opacity="0.11" d="M533.608 521.747C533.88 521.571 533.957 521.207 533.781 520.935C533.604 520.663 533.241 520.586 532.969 520.762C532.697 520.939 532.62 521.302 532.796 521.574C532.973 521.846 533.336 521.924 533.608 521.747Z" fill="white"/>
<path opacity="0.11" d="M624.99 455.439C625.262 455.262 625.339 454.899 625.163 454.627C624.986 454.355 624.623 454.277 624.351 454.454C624.079 454.63 624.001 454.994 624.178 455.266C624.354 455.538 624.718 455.615 624.99 455.439Z" fill="white"/>
<path opacity="0.3" d="M365.709 570.491C365.981 570.315 366.058 569.951 365.882 569.68C365.705 569.408 365.341 569.33 365.07 569.507C364.798 569.683 364.72 570.047 364.897 570.319C365.073 570.591 365.437 570.668 365.709 570.491Z" fill="white"/>
<path d="M461.748 470.361C462.02 470.184 462.097 469.821 461.921 469.549C461.744 469.277 461.381 469.199 461.109 469.376C460.837 469.552 460.759 469.916 460.936 470.188C461.112 470.46 461.476 470.537 461.748 470.361Z" fill="white"/>
<path d="M536.974 420.142C537.246 419.965 537.324 419.602 537.147 419.33C536.971 419.058 536.607 418.981 536.335 419.157C536.063 419.334 535.986 419.697 536.162 419.969C536.339 420.241 536.702 420.318 536.974 420.142Z" fill="white"/>
<path d="M457.663 537.421C457.935 537.245 458.012 536.881 457.836 536.609C457.659 536.337 457.296 536.26 457.024 536.436C456.752 536.613 456.674 536.976 456.851 537.248C457.027 537.52 457.391 537.598 457.663 537.421Z" fill="white"/>
<path opacity="0.3" d="M423.178 559.802C423.45 559.625 423.528 559.262 423.351 558.99C423.175 558.718 422.811 558.641 422.539 558.817C422.267 558.994 422.19 559.357 422.366 559.629C422.543 559.901 422.906 559.978 423.178 559.802Z" fill="white"/>
<path opacity="0.11" d="M362.966 555.47C363.238 555.293 363.316 554.93 363.139 554.658C362.963 554.386 362.599 554.309 362.327 554.485C362.055 554.662 361.978 555.025 362.155 555.297C362.331 555.569 362.695 555.646 362.966 555.47Z" fill="white"/>
<path opacity="0.3" d="M478.295 476.427C478.567 476.25 478.644 475.887 478.467 475.615C478.291 475.343 477.927 475.266 477.655 475.442C477.384 475.619 477.306 475.982 477.483 476.254C477.659 476.526 478.023 476.603 478.295 476.427Z" fill="white"/>
<path opacity="0.3" d="M472.115 541.349C472.387 541.172 472.464 540.809 472.288 540.537C472.111 540.265 471.748 540.188 471.476 540.364C471.204 540.541 471.126 540.904 471.303 541.176C471.479 541.448 471.843 541.525 472.115 541.349Z" fill="white"/>
<path opacity="0.3" d="M415.701 584.956C415.973 584.78 416.05 584.416 415.874 584.144C415.697 583.872 415.334 583.795 415.062 583.971C414.79 584.148 414.712 584.511 414.889 584.783C415.065 585.055 415.429 585.133 415.701 584.956Z" fill="white"/>
<path opacity="0.3" d="M379.999 561.224C380.271 561.047 380.348 560.684 380.172 560.412C379.995 560.14 379.632 560.063 379.36 560.239C379.088 560.416 379.01 560.779 379.187 561.051C379.363 561.323 379.727 561.4 379.999 561.224Z" fill="white"/>
<path opacity="0.3" d="M685.452 360.894C685.724 360.717 685.801 360.354 685.625 360.082C685.448 359.81 685.085 359.732 684.813 359.909C684.541 360.085 684.463 360.449 684.64 360.721C684.816 360.993 685.18 361.07 685.452 360.894Z" fill="white"/>
<path opacity="0.11" d="M593.029 392.165C593.301 391.989 593.378 391.625 593.202 391.353C593.025 391.081 592.662 391.004 592.39 391.18C592.118 391.357 592.041 391.72 592.217 391.992C592.393 392.264 592.757 392.342 593.029 392.165Z" fill="white"/>
<path opacity="0.11" d="M685.897 390.706C686.169 390.53 686.246 390.166 686.07 389.894C685.894 389.622 685.53 389.545 685.258 389.721C684.986 389.898 684.909 390.261 685.085 390.533C685.262 390.805 685.625 390.883 685.897 390.706Z" fill="white"/>
<path opacity="0.3" d="M564.138 476.027C564.682 475.674 564.837 474.946 564.484 474.402C564.131 473.857 563.403 473.702 562.859 474.056C562.314 474.409 562.159 475.137 562.513 475.681C562.866 476.225 563.594 476.38 564.138 476.027Z" fill="white"/>
<path opacity="0.11" d="M583.616 442.386C584.16 442.033 584.315 441.305 583.962 440.761C583.608 440.217 582.881 440.062 582.336 440.415C581.792 440.768 581.637 441.496 581.99 442.04C582.343 442.585 583.071 442.74 583.616 442.386Z" fill="white"/>
<path d="M572.181 425.303C572.589 425.038 572.705 424.493 572.44 424.085C572.175 423.676 571.63 423.56 571.221 423.825C570.813 424.09 570.697 424.636 570.962 425.044C571.227 425.452 571.772 425.568 572.181 425.303Z" fill="white"/>
<path d="M571.76 499.088C572.168 498.823 572.284 498.278 572.019 497.87C571.754 497.461 571.209 497.345 570.801 497.61C570.392 497.875 570.276 498.421 570.541 498.829C570.806 499.237 571.352 499.353 571.76 499.088Z" fill="white"/>
<path d="M741.705 402.801C742.113 402.536 742.229 401.991 741.964 401.583C741.7 401.174 741.154 401.058 740.746 401.323C740.338 401.588 740.222 402.134 740.486 402.542C740.751 402.95 741.297 403.066 741.705 402.801Z" fill="white"/>
<path d="M416.549 601.909C416.957 601.644 417.073 601.098 416.808 600.69C416.543 600.282 415.998 600.166 415.59 600.431C415.181 600.695 415.065 601.241 415.33 601.649C415.595 602.057 416.141 602.173 416.549 601.909Z" fill="white"/>
<path d="M554.932 450.5C555.34 450.236 555.456 449.69 555.191 449.282C554.926 448.874 554.381 448.757 553.972 449.022C553.564 449.287 553.448 449.833 553.713 450.241C553.978 450.649 554.523 450.765 554.932 450.5Z" fill="white"/>
<path d="M492.868 542.58C493.276 542.316 493.392 541.77 493.128 541.362C492.863 540.954 492.317 540.838 491.909 541.102C491.501 541.367 491.385 541.913 491.65 542.321C491.914 542.729 492.46 542.845 492.868 542.58Z" fill="white"/>
<path d="M630.76 483.202C631.168 482.937 631.284 482.391 631.019 481.983C630.754 481.575 630.209 481.459 629.801 481.724C629.392 481.988 629.276 482.534 629.541 482.942C629.806 483.35 630.352 483.466 630.76 483.202Z" fill="white"/>
<path d="M739.563 364.983C739.972 364.718 740.088 364.172 739.823 363.764C739.558 363.356 739.012 363.24 738.604 363.505C738.196 363.77 738.08 364.315 738.345 364.723C738.61 365.132 739.155 365.248 739.563 364.983Z" fill="white"/>
<path d="M733.806 330.217C734.214 329.952 734.33 329.407 734.065 328.999C733.8 328.59 733.255 328.474 732.846 328.739C732.438 329.004 732.322 329.55 732.587 329.958C732.852 330.366 733.397 330.482 733.806 330.217Z" fill="white"/>
<path opacity="0.3" d="M613.146 399.42C613.69 399.066 613.845 398.339 613.492 397.794C613.139 397.25 612.411 397.095 611.867 397.448C611.322 397.802 611.167 398.529 611.52 399.074C611.874 399.618 612.601 399.773 613.146 399.42Z" fill="white"/>
<path d="M590.443 364.443C590.987 364.09 591.142 363.362 590.789 362.818C590.435 362.273 589.708 362.118 589.163 362.472C588.619 362.825 588.464 363.553 588.817 364.097C589.171 364.641 589.898 364.796 590.443 364.443Z" fill="white"/>
<path d="M645.548 393.793C645.956 393.529 646.072 392.983 645.807 392.575C645.542 392.167 644.997 392.05 644.589 392.315C644.18 392.58 644.064 393.126 644.329 393.534C644.594 393.942 645.14 394.058 645.548 393.793Z" fill="white"/>
<path opacity="0.3" d="M656.974 359.074C657.518 358.721 657.673 357.993 657.32 357.449C656.967 356.904 656.239 356.749 655.695 357.103C655.15 357.456 654.995 358.183 655.349 358.728C655.702 359.272 656.43 359.427 656.974 359.074Z" fill="white"/>
<path opacity="0.3" d="M728.444 362.402C728.988 362.049 729.143 361.321 728.79 360.777C728.436 360.232 727.709 360.077 727.164 360.431C726.62 360.784 726.465 361.512 726.818 362.056C727.172 362.6 727.899 362.755 728.444 362.402Z" fill="white"/>
<path opacity="0.3" d="M671.443 400.791C671.987 400.437 672.142 399.71 671.789 399.165C671.435 398.621 670.708 398.466 670.163 398.819C669.619 399.173 669.464 399.9 669.817 400.445C670.171 400.989 670.898 401.144 671.443 400.791Z" fill="white"/>
<path opacity="0.3" d="M394.107 592.67C394.651 592.316 394.806 591.589 394.453 591.044C394.099 590.5 393.372 590.345 392.827 590.698C392.283 591.052 392.128 591.779 392.481 592.324C392.835 592.868 393.562 593.023 394.107 592.67Z" fill="white"/>
<path opacity="0.3" d="M336.615 591.472C337.159 591.119 337.314 590.391 336.961 589.847C336.607 589.303 335.88 589.148 335.335 589.501C334.791 589.854 334.636 590.582 334.989 591.126C335.343 591.671 336.07 591.826 336.615 591.472Z" fill="white"/>
<path opacity="0.11" d="M698.654 360.73C699.198 360.377 699.353 359.649 699 359.105C698.646 358.56 697.919 358.406 697.374 358.759C696.83 359.112 696.675 359.84 697.028 360.384C697.382 360.928 698.109 361.083 698.654 360.73Z" fill="white"/>
<path opacity="0.3" d="M396.193 529.007C396.737 528.654 396.892 527.926 396.539 527.382C396.185 526.838 395.458 526.683 394.913 527.036C394.369 527.389 394.214 528.117 394.567 528.661C394.921 529.206 395.648 529.361 396.193 529.007Z" fill="white"/>
<path opacity="0.11" d="M376.498 527.787C377.043 527.433 377.198 526.706 376.844 526.161C376.491 525.617 375.763 525.462 375.219 525.815C374.675 526.169 374.52 526.896 374.873 527.441C375.226 527.985 375.954 528.14 376.498 527.787Z" fill="white"/>
<path opacity="0.3" d="M393.021 561.871C393.565 561.517 393.72 560.79 393.367 560.245C393.014 559.701 392.286 559.546 391.742 559.899C391.197 560.253 391.042 560.98 391.395 561.525C391.749 562.069 392.476 562.224 393.021 561.871Z" fill="white"/>
<path d="M423.485 541.399C423.893 541.134 424.01 540.588 423.745 540.18C423.48 539.772 422.934 539.656 422.526 539.921C422.118 540.186 422.002 540.731 422.267 541.139C422.532 541.548 423.077 541.664 423.485 541.399Z" fill="white"/>
<path opacity="0.11" d="M584.825 222.201C585.37 221.848 585.525 221.12 585.171 220.576C584.818 220.031 584.091 219.876 583.546 220.23C583.002 220.583 582.847 221.31 583.2 221.855C583.553 222.399 584.281 222.554 584.825 222.201Z" fill="white"/>
<path d="M591.541 225.543C591.949 225.279 592.065 224.733 591.8 224.325C591.536 223.917 590.99 223.8 590.582 224.065C590.174 224.33 590.058 224.876 590.322 225.284C590.587 225.692 591.133 225.808 591.541 225.543Z" fill="white"/>
<path d="M601.088 204.649C601.496 204.384 601.612 203.838 601.347 203.43C601.082 203.022 600.537 202.906 600.129 203.171C599.721 203.436 599.604 203.981 599.869 204.389C600.134 204.798 600.68 204.914 601.088 204.649Z" fill="white"/>
<path d="M558.571 230.836C558.979 230.571 559.096 230.026 558.831 229.618C558.566 229.21 558.02 229.093 557.612 229.358C557.204 229.623 557.088 230.169 557.353 230.577C557.618 230.985 558.163 231.101 558.571 230.836Z" fill="white"/>
<path opacity="0.11" d="M541.857 258.484C542.401 258.131 542.556 257.403 542.203 256.859C541.849 256.314 541.122 256.159 540.577 256.513C540.033 256.866 539.878 257.594 540.231 258.138C540.585 258.682 541.312 258.837 541.857 258.484Z" fill="white"/>
<path d="M525.467 253.722C525.739 253.545 525.817 253.182 525.64 252.91C525.464 252.638 525.1 252.561 524.828 252.737C524.556 252.914 524.479 253.277 524.655 253.549C524.832 253.821 525.195 253.898 525.467 253.722Z" fill="white"/>
<path d="M595.81 242.374C596.082 242.198 596.16 241.834 595.983 241.562C595.807 241.29 595.443 241.213 595.171 241.389C594.899 241.566 594.822 241.929 594.998 242.201C595.175 242.473 595.538 242.551 595.81 242.374Z" fill="white"/>
<path d="M703.209 172.681C703.481 172.504 703.558 172.141 703.382 171.869C703.205 171.597 702.841 171.52 702.57 171.696C702.298 171.873 702.22 172.236 702.397 172.508C702.573 172.78 702.937 172.857 703.209 172.681Z" fill="white"/>
<path d="M739.639 111.232C739.911 111.055 739.989 110.692 739.812 110.42C739.636 110.148 739.272 110.07 739 110.247C738.728 110.423 738.651 110.787 738.827 111.059C739.004 111.331 739.367 111.408 739.639 111.232Z" fill="white"/>
<path d="M782.193 134.728C782.465 134.551 782.542 134.188 782.366 133.916C782.189 133.644 781.826 133.566 781.554 133.743C781.282 133.919 781.205 134.283 781.381 134.555C781.558 134.827 781.921 134.904 782.193 134.728Z" fill="white"/>
<path d="M423.772 336.517C424.044 336.34 424.121 335.977 423.945 335.705C423.768 335.433 423.405 335.356 423.133 335.532C422.861 335.709 422.784 336.072 422.96 336.344C423.137 336.616 423.5 336.693 423.772 336.517Z" fill="white"/>
<path opacity="0.11" d="M399.123 314.708C399.395 314.532 399.472 314.168 399.296 313.896C399.119 313.624 398.756 313.547 398.484 313.723C398.212 313.9 398.134 314.263 398.311 314.535C398.487 314.807 398.851 314.885 399.123 314.708Z" fill="white"/>
<path opacity="0.11" d="M385.295 339.786C385.567 339.61 385.644 339.246 385.467 338.974C385.291 338.702 384.927 338.625 384.655 338.802C384.384 338.978 384.306 339.342 384.483 339.613C384.659 339.885 385.023 339.963 385.295 339.786Z" fill="white"/>
<path opacity="0.11" d="M420.733 358.796C421.005 358.62 421.082 358.256 420.906 357.984C420.729 357.712 420.366 357.635 420.094 357.811C419.822 357.988 419.745 358.351 419.921 358.623C420.098 358.895 420.461 358.973 420.733 358.796Z" fill="white"/>
<path opacity="0.11" d="M525.185 263.001C525.457 262.825 525.535 262.461 525.358 262.189C525.182 261.917 524.818 261.84 524.546 262.016C524.274 262.193 524.197 262.556 524.373 262.828C524.55 263.1 524.913 263.178 525.185 263.001Z" fill="white"/>
<path opacity="0.11" d="M606.341 260.749C606.613 260.573 606.691 260.209 606.514 259.937C606.338 259.665 605.974 259.588 605.702 259.764C605.43 259.941 605.353 260.304 605.529 260.576C605.706 260.848 606.07 260.926 606.341 260.749Z" fill="white"/>
<path opacity="0.11" d="M697.725 194.439C697.997 194.262 698.075 193.899 697.898 193.627C697.722 193.355 697.358 193.277 697.086 193.454C696.814 193.63 696.737 193.994 696.913 194.266C697.09 194.538 697.453 194.615 697.725 194.439Z" fill="white"/>
<path opacity="0.3" d="M438.442 309.495C438.714 309.319 438.791 308.955 438.615 308.683C438.438 308.411 438.075 308.334 437.803 308.511C437.531 308.687 437.454 309.051 437.63 309.322C437.807 309.594 438.17 309.672 438.442 309.495Z" fill="white"/>
<path d="M534.483 209.361C534.755 209.184 534.832 208.821 534.656 208.549C534.479 208.277 534.116 208.199 533.844 208.376C533.572 208.552 533.495 208.916 533.671 209.188C533.848 209.46 534.211 209.537 534.483 209.361Z" fill="white"/>
<path d="M609.709 159.146C609.981 158.969 610.058 158.606 609.882 158.334C609.705 158.062 609.341 157.984 609.07 158.161C608.798 158.337 608.72 158.701 608.897 158.973C609.073 159.245 609.437 159.322 609.709 159.146Z" fill="white"/>
<path d="M530.397 276.423C530.669 276.247 530.746 275.883 530.57 275.611C530.393 275.339 530.03 275.262 529.758 275.438C529.486 275.615 529.409 275.978 529.585 276.25C529.762 276.522 530.125 276.6 530.397 276.423Z" fill="white"/>
<path opacity="0.3" d="M495.913 298.804C496.185 298.627 496.262 298.264 496.086 297.992C495.909 297.72 495.546 297.643 495.274 297.819C495.002 297.996 494.924 298.359 495.101 298.631C495.277 298.903 495.641 298.98 495.913 298.804Z" fill="white"/>
<path opacity="0.11" d="M435.701 294.474C435.973 294.297 436.05 293.934 435.874 293.662C435.697 293.39 435.334 293.313 435.062 293.489C434.79 293.666 434.712 294.029 434.889 294.301C435.065 294.573 435.429 294.65 435.701 294.474Z" fill="white"/>
<path opacity="0.3" d="M551.028 215.429C551.3 215.252 551.377 214.889 551.201 214.617C551.024 214.345 550.661 214.268 550.389 214.444C550.117 214.621 550.04 214.984 550.216 215.256C550.393 215.528 550.756 215.605 551.028 215.429Z" fill="white"/>
<path opacity="0.3" d="M544.85 280.349C545.122 280.172 545.2 279.809 545.023 279.537C544.847 279.265 544.483 279.188 544.211 279.364C543.939 279.541 543.862 279.904 544.038 280.176C544.215 280.448 544.578 280.525 544.85 280.349Z" fill="white"/>
<path opacity="0.3" d="M488.436 323.958C488.708 323.782 488.786 323.418 488.609 323.146C488.433 322.874 488.069 322.797 487.797 322.973C487.525 323.15 487.448 323.513 487.624 323.785C487.801 324.057 488.164 324.135 488.436 323.958Z" fill="white"/>
<path opacity="0.3" d="M452.732 300.224C453.004 300.047 453.081 299.684 452.905 299.412C452.728 299.14 452.365 299.063 452.093 299.239C451.821 299.416 451.744 299.779 451.92 300.051C452.097 300.323 452.46 300.4 452.732 300.224Z" fill="white"/>
<path opacity="0.3" d="M758.186 99.8957C758.458 99.7192 758.536 99.3557 758.359 99.0838C758.183 98.8118 757.819 98.7344 757.547 98.9109C757.275 99.0874 757.198 99.4509 757.374 99.7229C757.551 99.9948 757.914 100.072 758.186 99.8957Z" fill="white"/>
<path opacity="0.11" d="M665.763 131.169C666.035 130.993 666.113 130.629 665.936 130.357C665.76 130.085 665.396 130.008 665.124 130.184C664.852 130.361 664.775 130.724 664.951 130.996C665.128 131.268 665.491 131.346 665.763 131.169Z" fill="white"/>
<path opacity="0.11" d="M758.631 129.708C758.902 129.532 758.98 129.168 758.803 128.896C758.627 128.624 758.263 128.547 757.991 128.723C757.719 128.9 757.642 129.263 757.819 129.535C757.995 129.807 758.359 129.885 758.631 129.708Z" fill="white"/>
<path opacity="0.3" d="M636.872 215.029C637.417 214.676 637.572 213.948 637.218 213.404C636.865 212.859 636.137 212.704 635.593 213.058C635.049 213.411 634.894 214.139 635.247 214.683C635.6 215.227 636.328 215.382 636.872 215.029Z" fill="white"/>
<path opacity="0.11" d="M656.349 181.386C656.893 181.033 657.048 180.305 656.695 179.761C656.342 179.217 655.614 179.062 655.07 179.415C654.525 179.768 654.37 180.496 654.724 181.04C655.077 181.585 655.805 181.74 656.349 181.386Z" fill="white"/>
<path d="M644.915 164.303C645.323 164.038 645.439 163.493 645.174 163.085C644.91 162.676 644.364 162.56 643.956 162.825C643.548 163.09 643.432 163.636 643.696 164.044C643.961 164.452 644.507 164.568 644.915 164.303Z" fill="white"/>
<path d="M644.494 238.09C644.902 237.825 645.018 237.28 644.754 236.872C644.489 236.463 643.943 236.347 643.535 236.612C643.127 236.877 643.011 237.423 643.275 237.831C643.54 238.239 644.086 238.355 644.494 238.09Z" fill="white"/>
<path d="M814.438 141.803C814.847 141.538 814.963 140.993 814.698 140.585C814.433 140.176 813.887 140.06 813.479 140.325C813.071 140.59 812.955 141.136 813.22 141.544C813.485 141.952 814.03 142.068 814.438 141.803Z" fill="white"/>
<path d="M489.282 340.911C489.69 340.646 489.807 340.1 489.542 339.692C489.277 339.284 488.731 339.168 488.323 339.433C487.915 339.697 487.799 340.243 488.064 340.651C488.328 341.059 488.874 341.175 489.282 340.911Z" fill="white"/>
<path d="M416.416 372.098C416.824 371.833 416.94 371.288 416.675 370.879C416.411 370.471 415.865 370.355 415.457 370.62C415.049 370.885 414.932 371.43 415.197 371.839C415.462 372.247 416.008 372.363 416.416 372.098Z" fill="white"/>
<path d="M395.251 357.829C395.659 357.564 395.775 357.018 395.51 356.61C395.246 356.202 394.7 356.086 394.292 356.35C393.884 356.615 393.767 357.161 394.032 357.569C394.297 357.977 394.843 358.093 395.251 357.829Z" fill="white"/>
<path d="M627.665 189.502C628.073 189.237 628.189 188.692 627.924 188.284C627.66 187.876 627.114 187.759 626.706 188.024C626.298 188.289 626.182 188.835 626.446 189.243C626.711 189.651 627.257 189.767 627.665 189.502Z" fill="white"/>
<path d="M565.603 281.582C566.011 281.318 566.127 280.772 565.862 280.364C565.597 279.956 565.051 279.84 564.643 280.104C564.235 280.369 564.119 280.915 564.384 281.323C564.649 281.731 565.194 281.847 565.603 281.582Z" fill="white"/>
<path d="M703.493 222.205C703.901 221.941 704.017 221.395 703.753 220.987C703.488 220.579 702.942 220.463 702.534 220.727C702.126 220.992 702.01 221.538 702.275 221.946C702.539 222.354 703.085 222.47 703.493 222.205Z" fill="white"/>
<path d="M812.299 103.985C812.707 103.72 812.823 103.174 812.558 102.766C812.293 102.358 811.748 102.242 811.34 102.507C810.931 102.772 810.815 103.317 811.08 103.725C811.345 104.133 811.891 104.25 812.299 103.985Z" fill="white"/>
<path d="M806.541 69.2192C806.949 68.9543 807.065 68.4087 806.8 68.0005C806.536 67.5924 805.99 67.4762 805.582 67.7411C805.174 68.006 805.057 68.5516 805.322 68.9597C805.587 69.3679 806.133 69.484 806.541 69.2192Z" fill="white"/>
<path opacity="0.3" d="M685.88 138.421C686.424 138.068 686.579 137.341 686.226 136.796C685.873 136.252 685.145 136.097 684.601 136.45C684.057 136.803 683.902 137.531 684.255 138.075C684.608 138.62 685.336 138.775 685.88 138.421Z" fill="white"/>
<path d="M663.177 103.447C663.721 103.094 663.876 102.366 663.523 101.822C663.17 101.277 662.442 101.122 661.898 101.476C661.353 101.829 661.198 102.557 661.552 103.101C661.905 103.645 662.633 103.8 663.177 103.447Z" fill="white"/>
<path d="M718.282 132.795C718.69 132.53 718.806 131.985 718.542 131.577C718.277 131.169 717.731 131.052 717.323 131.317C716.915 131.582 716.799 132.128 717.064 132.536C717.328 132.944 717.874 133.06 718.282 132.795Z" fill="white"/>
<path opacity="0.3" d="M729.708 98.0777C730.253 97.7245 730.408 96.9968 730.054 96.4525C729.701 95.9081 728.973 95.7532 728.429 96.1065C727.885 96.4597 727.73 97.1874 728.083 97.7317C728.436 98.2761 729.164 98.431 729.708 98.0777Z" fill="white"/>
<path opacity="0.3" d="M801.177 101.404C801.721 101.051 801.876 100.323 801.523 99.7786C801.17 99.2343 800.442 99.0794 799.898 99.4326C799.353 99.7859 799.198 100.514 799.552 101.058C799.905 101.602 800.633 101.757 801.177 101.404Z" fill="white"/>
<path opacity="0.3" d="M744.177 139.793C744.721 139.439 744.876 138.712 744.523 138.167C744.17 137.623 743.442 137.468 742.898 137.821C742.353 138.175 742.198 138.902 742.552 139.447C742.905 139.991 743.633 140.146 744.177 139.793Z" fill="white"/>
<path opacity="0.3" d="M466.841 331.671C467.385 331.318 467.54 330.591 467.187 330.046C466.834 329.502 466.106 329.347 465.562 329.7C465.017 330.053 464.863 330.781 465.216 331.325C465.569 331.87 466.297 332.025 466.841 331.671Z" fill="white"/>
<path opacity="0.3" d="M409.349 330.476C409.893 330.123 410.048 329.395 409.695 328.851C409.342 328.307 408.614 328.152 408.07 328.505C407.525 328.858 407.37 329.586 407.724 330.13C408.077 330.675 408.805 330.829 409.349 330.476Z" fill="white"/>
<path opacity="0.11" d="M771.388 99.732C771.932 99.3787 772.087 98.6511 771.734 98.1067C771.381 97.5624 770.653 97.4075 770.109 97.7607C769.564 98.114 769.409 98.8417 769.763 99.386C770.116 99.9304 770.844 100.085 771.388 99.732Z" fill="white"/>
<path opacity="0.3" d="M468.927 268.009C469.471 267.656 469.626 266.928 469.273 266.384C468.92 265.84 468.192 265.685 467.648 266.038C467.103 266.391 466.948 267.119 467.302 267.663C467.655 268.208 468.383 268.363 468.927 268.009Z" fill="white"/>
<path opacity="0.11" d="M449.232 266.787C449.776 266.433 449.931 265.706 449.578 265.161C449.224 264.617 448.497 264.462 447.952 264.815C447.408 265.169 447.253 265.896 447.606 266.441C447.96 266.985 448.687 267.14 449.232 266.787Z" fill="white"/>
<path opacity="0.3" d="M465.755 300.875C466.3 300.521 466.454 299.794 466.101 299.249C465.748 298.705 465.02 298.55 464.476 298.903C463.932 299.257 463.777 299.984 464.13 300.529C464.483 301.073 465.211 301.228 465.755 300.875Z" fill="white"/>
<path d="M496.221 280.401C496.629 280.136 496.745 279.59 496.48 279.182C496.215 278.774 495.67 278.658 495.261 278.923C494.853 279.188 494.737 279.733 495.002 280.141C495.267 280.549 495.813 280.666 496.221 280.401Z" fill="white"/>
<path opacity="0.11" d="M893.958 131.281C894.503 130.928 894.658 130.2 894.304 129.656C893.951 129.111 893.223 128.956 892.679 129.31C892.135 129.663 891.98 130.391 892.333 130.935C892.686 131.479 893.414 131.634 893.958 131.281Z" fill="white"/>
<path d="M900.674 134.623C901.082 134.359 901.198 133.813 900.933 133.405C900.668 132.997 900.123 132.881 899.715 133.145C899.306 133.41 899.19 133.956 899.455 134.364C899.72 134.772 900.266 134.888 900.674 134.623Z" fill="white"/>
<path d="M910.221 113.729C910.629 113.464 910.745 112.918 910.48 112.51C910.215 112.102 909.67 111.986 909.261 112.251C908.853 112.516 908.737 113.061 909.002 113.469C909.267 113.878 909.813 113.994 910.221 113.729Z" fill="white"/>
<path d="M867.705 139.916C868.113 139.652 868.229 139.106 867.964 138.698C867.7 138.29 867.154 138.174 866.746 138.438C866.338 138.703 866.222 139.249 866.486 139.657C866.751 140.065 867.297 140.181 867.705 139.916Z" fill="white"/>
<path opacity="0.11" d="M850.99 167.564C851.534 167.211 851.689 166.483 851.336 165.939C850.982 165.394 850.255 165.24 849.71 165.593C849.166 165.946 849.011 166.674 849.364 167.218C849.718 167.762 850.445 167.917 850.99 167.564Z" fill="white"/>
<path d="M834.6 162.802C834.872 162.625 834.95 162.262 834.773 161.99C834.597 161.718 834.233 161.641 833.961 161.817C833.689 161.994 833.612 162.357 833.788 162.629C833.965 162.901 834.328 162.978 834.6 162.802Z" fill="white"/>
<path d="M904.943 151.454C905.215 151.278 905.292 150.914 905.116 150.642C904.939 150.37 904.576 150.293 904.304 150.469C904.032 150.646 903.955 151.01 904.131 151.281C904.308 151.553 904.671 151.631 904.943 151.454Z" fill="white"/>
<path d="M1012.34 81.7629C1012.61 81.5864 1012.69 81.2229 1012.51 80.951C1012.34 80.679 1011.97 80.6016 1011.7 80.7781C1011.43 80.9546 1011.35 81.3181 1011.53 81.59C1011.71 81.862 1012.07 81.9394 1012.34 81.7629Z" fill="white"/>
<path d="M1048.77 20.3098C1049.04 20.1333 1049.12 19.7698 1048.94 19.4978C1048.77 19.2259 1048.4 19.1485 1048.13 19.325C1047.86 19.5015 1047.78 19.865 1047.96 20.1369C1048.14 20.4089 1048.5 20.4863 1048.77 20.3098Z" fill="white"/>
<path d="M1091.33 43.8039C1091.6 43.6274 1091.68 43.2639 1091.5 42.992C1091.32 42.72 1090.96 42.6426 1090.69 42.8191C1090.41 42.9956 1090.34 43.3591 1090.51 43.6311C1090.69 43.903 1091.05 43.9804 1091.33 43.8039Z" fill="white"/>
<path d="M732.903 245.599C733.175 245.422 733.252 245.059 733.076 244.787C732.899 244.515 732.536 244.438 732.264 244.614C731.992 244.791 731.915 245.154 732.091 245.426C732.268 245.698 732.631 245.775 732.903 245.599Z" fill="white"/>
<path opacity="0.11" d="M708.256 223.79C708.527 223.614 708.605 223.25 708.428 222.978C708.252 222.706 707.888 222.629 707.616 222.805C707.344 222.982 707.267 223.345 707.444 223.617C707.62 223.889 707.984 223.967 708.256 223.79Z" fill="white"/>
<path opacity="0.11" d="M694.428 248.868C694.7 248.692 694.778 248.328 694.601 248.056C694.425 247.784 694.061 247.707 693.789 247.884C693.517 248.06 693.44 248.424 693.616 248.696C693.793 248.967 694.156 249.045 694.428 248.868Z" fill="white"/>
<path opacity="0.11" d="M729.866 267.876C730.138 267.7 730.215 267.336 730.039 267.064C729.862 266.792 729.499 266.715 729.227 266.891C728.955 267.068 728.877 267.431 729.054 267.703C729.23 267.975 729.594 268.053 729.866 267.876Z" fill="white"/>
<path opacity="0.11" d="M834.317 172.083C834.589 171.907 834.666 171.543 834.49 171.271C834.313 170.999 833.95 170.922 833.678 171.098C833.406 171.275 833.329 171.638 833.505 171.91C833.682 172.182 834.045 172.26 834.317 172.083Z" fill="white"/>
<path opacity="0.11" d="M915.467 169.829C915.739 169.653 915.817 169.289 915.64 169.017C915.464 168.745 915.1 168.668 914.828 168.845C914.556 169.021 914.479 169.385 914.655 169.656C914.832 169.928 915.195 170.006 915.467 169.829Z" fill="white"/>
<path opacity="0.11" d="M1006.86 103.521C1007.13 103.344 1007.21 102.981 1007.03 102.709C1006.85 102.437 1006.49 102.359 1006.22 102.536C1005.95 102.712 1005.87 103.076 1006.05 103.348C1006.22 103.62 1006.59 103.697 1006.86 103.521Z" fill="white"/>
<path opacity="0.3" d="M747.576 218.573C747.848 218.397 747.925 218.033 747.749 217.762C747.572 217.49 747.209 217.412 746.937 217.589C746.665 217.765 746.587 218.129 746.764 218.401C746.94 218.673 747.304 218.75 747.576 218.573Z" fill="white"/>
<path d="M843.615 118.443C843.887 118.266 843.964 117.903 843.788 117.631C843.611 117.359 843.248 117.281 842.976 117.458C842.704 117.634 842.626 117.998 842.803 118.27C842.979 118.542 843.343 118.619 843.615 118.443Z" fill="white"/>
<path d="M918.841 68.2239C919.113 68.0474 919.191 67.6839 919.014 67.4119C918.838 67.14 918.474 67.0626 918.202 67.2391C917.93 67.4155 917.853 67.7791 918.03 68.051C918.206 68.3229 918.569 68.4004 918.841 68.2239Z" fill="white"/>
<path d="M839.529 185.505C839.801 185.329 839.878 184.965 839.702 184.693C839.525 184.421 839.162 184.344 838.89 184.52C838.618 184.697 838.541 185.06 838.717 185.332C838.893 185.604 839.257 185.682 839.529 185.505Z" fill="white"/>
<path opacity="0.3" d="M805.045 207.884C805.316 207.708 805.394 207.344 805.217 207.072C805.041 206.8 804.677 206.723 804.405 206.899C804.134 207.076 804.056 207.439 804.233 207.711C804.409 207.983 804.773 208.06 805.045 207.884Z" fill="white"/>
<path opacity="0.11" d="M744.834 203.554C745.106 203.377 745.183 203.014 745.006 202.742C744.83 202.47 744.466 202.393 744.195 202.569C743.923 202.746 743.845 203.109 744.022 203.381C744.198 203.653 744.562 203.73 744.834 203.554Z" fill="white"/>
<path opacity="0.3" d="M860.162 124.509C860.434 124.332 860.511 123.969 860.335 123.697C860.158 123.425 859.795 123.348 859.523 123.524C859.251 123.701 859.173 124.064 859.35 124.336C859.526 124.608 859.89 124.685 860.162 124.509Z" fill="white"/>
<path opacity="0.3" d="M853.983 189.431C854.255 189.254 854.332 188.891 854.156 188.619C853.979 188.347 853.616 188.27 853.344 188.446C853.072 188.623 852.995 188.986 853.171 189.258C853.348 189.53 853.711 189.607 853.983 189.431Z" fill="white"/>
<path opacity="0.3" d="M797.568 233.04C797.84 232.864 797.917 232.5 797.741 232.228C797.564 231.956 797.201 231.879 796.929 232.055C796.657 232.232 796.58 232.595 796.756 232.867C796.933 233.139 797.296 233.217 797.568 233.04Z" fill="white"/>
<path opacity="0.3" d="M761.865 209.306C762.137 209.129 762.214 208.766 762.038 208.494C761.861 208.222 761.498 208.145 761.226 208.321C760.954 208.498 760.876 208.861 761.053 209.133C761.229 209.405 761.593 209.482 761.865 209.306Z" fill="white"/>
<path opacity="0.3" d="M1067.32 8.97773C1067.59 8.80125 1067.67 8.43774 1067.49 8.16579C1067.31 7.89385 1066.95 7.81645 1066.68 7.99293C1066.41 8.16941 1066.33 8.53295 1066.51 8.8049C1066.68 9.07684 1067.05 9.15421 1067.32 8.97773Z" fill="white"/>
<path opacity="0.11" d="M974.897 40.2493C975.169 40.0728 975.246 39.7092 975.07 39.4373C974.894 39.1653 974.53 39.088 974.258 39.2644C973.986 39.4409 973.909 39.8044 974.085 40.0764C974.262 40.3483 974.625 40.4257 974.897 40.2493Z" fill="white"/>
<path opacity="0.11" d="M1067.76 38.7903C1068.04 38.6138 1068.11 38.2503 1067.94 37.9783C1067.76 37.7064 1067.4 37.629 1067.13 37.8055C1066.85 37.9819 1066.78 38.3455 1066.95 38.6174C1067.13 38.8894 1067.49 38.9668 1067.76 38.7903Z" fill="white"/>
<path opacity="0.3" d="M946.005 124.109C946.55 123.756 946.704 123.028 946.351 122.484C945.998 121.939 945.27 121.784 944.726 122.138C944.182 122.491 944.027 123.219 944.38 123.763C944.733 124.307 945.461 124.462 946.005 124.109Z" fill="white"/>
<path opacity="0.11" d="M965.482 90.4684C966.026 90.1151 966.181 89.3874 965.828 88.8431C965.474 88.2987 964.747 88.1438 964.202 88.4971C963.658 88.8503 963.503 89.578 963.856 90.1224C964.21 90.6667 964.937 90.8216 965.482 90.4684Z" fill="white"/>
<path d="M954.049 73.3852C954.457 73.1203 954.573 72.5747 954.308 72.1666C954.043 71.7584 953.498 71.6423 953.09 71.9071C952.681 72.172 952.565 72.7176 952.83 73.1257C953.095 73.5339 953.641 73.6501 954.049 73.3852Z" fill="white"/>
<path d="M953.627 147.17C954.035 146.905 954.151 146.36 953.886 145.952C953.621 145.544 953.076 145.427 952.668 145.692C952.26 145.957 952.143 146.503 952.408 146.911C952.673 147.319 953.219 147.435 953.627 147.17Z" fill="white"/>
<path d="M1123.57 50.8852C1123.98 50.6203 1124.1 50.0747 1123.83 49.6666C1123.57 49.2584 1123.02 49.1423 1122.61 49.4071C1122.2 49.672 1122.09 50.2176 1122.35 50.6257C1122.62 51.0339 1123.16 51.15 1123.57 50.8852Z" fill="white"/>
<path d="M798.416 249.993C798.824 249.728 798.94 249.182 798.675 248.774C798.41 248.366 797.865 248.25 797.457 248.515C797.049 248.779 796.932 249.325 797.197 249.733C797.462 250.141 798.008 250.257 798.416 249.993Z" fill="white"/>
<path d="M725.548 281.178C725.956 280.913 726.072 280.368 725.807 279.959C725.542 279.551 724.997 279.435 724.589 279.7C724.18 279.965 724.064 280.511 724.329 280.919C724.594 281.327 725.14 281.443 725.548 281.178Z" fill="white"/>
<path d="M704.386 266.909C704.794 266.644 704.91 266.098 704.645 265.69C704.38 265.282 703.835 265.166 703.427 265.431C703.018 265.695 702.902 266.241 703.167 266.649C703.432 267.057 703.978 267.173 704.386 266.909Z" fill="white"/>
<path d="M936.799 98.5844C937.207 98.3195 937.323 97.7739 937.058 97.3658C936.793 96.9576 936.248 96.8415 935.84 97.1064C935.431 97.3712 935.315 97.9168 935.58 98.325C935.845 98.7331 936.391 98.8493 936.799 98.5844Z" fill="white"/>
<path d="M874.735 190.663C875.143 190.398 875.26 189.852 874.995 189.444C874.73 189.036 874.184 188.92 873.776 189.184C873.368 189.449 873.252 189.995 873.517 190.403C873.782 190.811 874.327 190.927 874.735 190.663Z" fill="white"/>
<path d="M1012.63 131.286C1013.04 131.021 1013.15 130.475 1012.89 130.067C1012.62 129.659 1012.08 129.543 1011.67 129.808C1011.26 130.072 1011.14 130.618 1011.41 131.026C1011.67 131.434 1012.22 131.55 1012.63 131.286Z" fill="white"/>
<path d="M1121.43 13.0668C1121.84 12.8019 1121.96 12.2564 1121.69 11.8482C1121.43 11.4401 1120.88 11.3239 1120.47 11.5888C1120.06 11.8536 1119.95 12.3992 1120.21 12.8074C1120.48 13.2155 1121.02 13.3317 1121.43 13.0668Z" fill="white"/>
<path opacity="0.3" d="M995.005 47.5015C995.55 47.1483 995.704 46.4206 995.351 45.8763C994.998 45.3319 994.27 45.177 993.726 45.5303C993.182 45.8835 993.027 46.6112 993.38 47.1556C993.733 47.6999 994.461 47.8548 995.005 47.5015Z" fill="white"/>
<path d="M972.31 12.527C972.854 12.1737 973.009 11.446 972.656 10.9017C972.303 10.3573 971.575 10.2024 971.031 10.5557C970.486 10.9089 970.331 11.6366 970.685 12.1809C971.038 12.7253 971.765 12.8802 972.31 12.527Z" fill="white"/>
<path d="M1027.42 41.8774C1027.82 41.6125 1027.94 41.0669 1027.68 40.6588C1027.41 40.2506 1026.86 40.1344 1026.46 40.3993C1026.05 40.6642 1025.93 41.2098 1026.2 41.6179C1026.46 42.0261 1027.01 42.1422 1027.42 41.8774Z" fill="white"/>
<path opacity="0.3" d="M1038.84 7.15781C1039.39 6.80455 1039.54 6.0769 1039.19 5.53254C1038.83 4.98819 1038.11 4.83327 1037.56 5.18654C1037.02 5.5398 1036.86 6.26746 1037.22 6.81181C1037.57 7.35617 1038.3 7.51108 1038.84 7.15781Z" fill="white"/>
<path opacity="0.3" d="M1110.31 10.484C1110.85 10.1307 1111.01 9.40306 1110.66 8.85871C1110.3 8.31436 1109.57 8.15944 1109.03 8.51271C1108.49 8.86597 1108.33 9.59363 1108.68 10.138C1109.04 10.6823 1109.77 10.8373 1110.31 10.484Z" fill="white"/>
<path opacity="0.3" d="M1053.31 48.8746C1053.85 48.5213 1054.01 47.7937 1053.66 47.2493C1053.3 46.705 1052.57 46.5501 1052.03 46.9033C1051.49 47.2566 1051.33 47.9843 1051.68 48.5286C1052.04 49.073 1052.77 49.2279 1053.31 48.8746Z" fill="white"/>
<path opacity="0.3" d="M775.974 240.754C776.518 240.4 776.673 239.673 776.32 239.128C775.967 238.584 775.239 238.429 774.695 238.782C774.15 239.135 773.995 239.863 774.349 240.408C774.702 240.952 775.43 241.107 775.974 240.754Z" fill="white"/>
<path opacity="0.3" d="M718.482 239.556C719.026 239.203 719.181 238.475 718.828 237.931C718.474 237.387 717.747 237.232 717.202 237.585C716.658 237.938 716.503 238.666 716.856 239.21C717.21 239.755 717.937 239.91 718.482 239.556Z" fill="white"/>
<path opacity="0.11" d="M1080.52 8.81407C1081.07 8.46081 1081.22 7.73315 1080.87 7.18879C1080.51 6.64444 1079.79 6.48952 1079.24 6.84279C1078.7 7.19605 1078.54 7.92371 1078.9 8.46806C1079.25 9.01242 1079.98 9.16733 1080.52 8.81407Z" fill="white"/>
<path opacity="0.3" d="M778.06 177.089C778.604 176.736 778.759 176.009 778.406 175.464C778.053 174.92 777.325 174.765 776.781 175.118C776.236 175.471 776.081 176.199 776.435 176.743C776.788 177.288 777.516 177.443 778.06 177.089Z" fill="white"/>
<path opacity="0.11" d="M758.365 175.871C758.909 175.517 759.064 174.79 758.711 174.245C758.357 173.701 757.63 173.546 757.085 173.899C756.541 174.253 756.386 174.98 756.739 175.525C757.093 176.069 757.82 176.224 758.365 175.871Z" fill="white"/>
<path opacity="0.3" d="M774.888 209.953C775.432 209.599 775.587 208.872 775.234 208.327C774.881 207.783 774.153 207.628 773.609 207.981C773.064 208.335 772.909 209.062 773.263 209.607C773.616 210.151 774.344 210.306 774.888 209.953Z" fill="white"/>
<path d="M805.353 189.481C805.761 189.216 805.877 188.67 805.612 188.262C805.347 187.854 804.802 187.738 804.393 188.003C803.985 188.268 803.869 188.813 804.134 189.221C804.399 189.63 804.944 189.746 805.353 189.481Z" fill="white"/>
</g>
<mask id="path-167-inside-1_290_1652" fill="white">
<path d="M-480.268 1139.97C-480.268 676.05 -104.187 299.969 359.732 299.969H1079.73C1543.65 299.969 1919.73 676.05 1919.73 1139.97V1139.97C1919.73 1603.89 1543.65 1979.97 1079.73 1979.97H359.732C-104.187 1979.97 -480.268 1603.89 -480.268 1139.97V1139.97Z"/>
</mask>
<path d="M-480.268 1139.97C-480.268 676.05 -104.187 299.969 359.732 299.969H1079.73C1543.65 299.969 1919.73 676.05 1919.73 1139.97V1139.97C1919.73 1603.89 1543.65 1979.97 1079.73 1979.97H359.732C-104.187 1979.97 -480.268 1603.89 -480.268 1139.97V1139.97Z" fill="#010A18"/>
<path d="M-480.268 1139.97C-480.268 675.497 -103.739 298.969 360.732 298.969H1078.73C1543.2 298.969 1919.73 675.497 1919.73 1139.97C1919.73 676.602 1543.65 300.969 1079.73 300.969H359.732C-104.187 300.969 -480.268 676.602 -480.268 1139.97ZM1919.73 1979.97H-480.268H1919.73ZM-480.268 1979.97V299.969V1979.97ZM1919.73 299.969V1979.97V299.969Z" fill="#4A546E" fill-opacity="0.4" mask="url(#path-167-inside-1_290_1652)"/>
</g>
<defs>
<radialGradient id="paint0_radial_290_1652" cx="0" cy="0" r="1" gradientUnits="userSpaceOnUse" gradientTransform="translate(719.732 300) rotate(26.5651) scale(670.82 536.656)">
<stop/>
<stop offset="0.8" stop-opacity="0"/>
</radialGradient>
<radialGradient id="paint1_radial_290_1652" cx="0" cy="0" r="1" gradientUnits="userSpaceOnUse" gradientTransform="translate(719.732 299.969) rotate(26.5651) scale(670.82 536.656)">
<stop stop-color="#346BFA"/>
<stop offset="0.7" stop-opacity="0"/>
</radialGradient>
<clipPath id="clip0_290_1652">
<rect width="1440" height="600" fill="white"/>
</clipPath>
</defs>
</svg>
