<svg width="57" height="56" viewBox="0 0 57 56" fill="none" xmlns="http://www.w3.org/2000/svg">
<g id="SVG" clip-path="url(#clip0_117_4965)">
<path id="Vector" d="M28.9816 11.4151C37.9283 11.6695 45.0926 18.992 45.0926 28.0008H28.5V11.4082C28.5716 11.4082 28.6431 11.4087 28.7144 11.4096C28.8037 11.4107 28.8927 11.4125 28.9816 11.4151Z" fill="#E9E6EF"/>
<path id="Vector_2" d="M28.4998 28V44.5926C28.4215 44.5926 28.3433 44.5921 28.2652 44.591C19.2037 44.4656 11.9072 37.0915 11.9072 28H28.4998Z" fill="#E9E6EF"/>
<path id="Vector_3" fill-rule="evenodd" clip-rule="evenodd" d="M17.0403 11.4432C17.9351 12.4755 17.4285 13.5569 16.5338 14.4928C16.2692 14.7696 16.0314 15.0171 15.806 15.2517C14.9554 16.1372 14.2821 16.8381 13.0156 18.2301L8.18164 13.6761C8.64546 13.075 9.4185 12.1472 9.94976 11.5592C11.7097 9.61055 12.3561 9.04049 13.1965 8.95555C13.6472 8.90981 14.0929 9.01598 14.4482 9.30183C15.1768 9.88824 15.1127 10.7376 15.0124 11.0038L14.991 11.0626L15.0584 11.0365C15.736 10.7604 16.5535 10.883 17.0403 11.4432ZM12.7031 10.6984C12.2343 11.1231 11.1998 12.1962 10.2261 13.3788L11.1636 14.2658C11.1636 14.2658 13.0518 12.304 13.5666 11.7274C13.7952 11.4726 14.0008 11.1639 13.9268 10.8389C13.8528 10.5154 13.5255 10.2917 13.208 10.3782C13.0123 10.4305 12.8511 10.5644 12.7031 10.6984ZM14.5584 12.6144C13.9581 13.2318 12.1192 15.1625 12.1192 15.1625L13.0995 16.0854C13.1028 16.0822 15.2837 13.7643 15.537 13.4948C15.7245 13.2939 15.9515 13.0309 16.0124 12.7549C16.0634 12.5229 15.9696 12.2893 15.7657 12.1538C15.5584 12.0166 15.3265 12.0378 15.1143 12.1407C14.9499 12.2207 14.7969 12.3694 14.5584 12.6144Z" fill="#E9E6EF"/>
<path id="Vector_4" d="M30.6 5.61781L29.0523 9.06108H27.6427L26.095 5.61781L25.9963 5.31236L26.0242 5.63088L25.8614 10.2322C25.3186 10.2845 24.7578 10.358 24.2051 10.4495L24.4568 3.63483C25.2298 3.54989 25.9996 3.48946 26.7693 3.45679L28.2924 7.21531L28.3466 7.49462L28.4009 7.21531L29.9256 3.45679C30.6954 3.48946 31.4651 3.54989 32.2382 3.63483L32.4898 10.4495C31.9372 10.358 31.3763 10.2829 30.8335 10.2322L30.6707 5.63088L30.6987 5.31236L30.6 5.61781Z" fill="#E9E6EF"/>
<path id="Vector_5" d="M43.1412 17.6403C42.8336 17.2434 42.2859 16.5901 41.906 16.185L43.6609 12.8201L43.8205 12.6045L43.6034 12.7629L40.2184 14.5074C39.8352 14.1595 39.2349 13.6482 38.7793 13.3003L42.3747 7.67969C42.8863 8.07171 43.2876 8.39513 43.7053 8.74795L41.332 12.3088L41.1198 12.5522L41.3862 12.3709L44.5491 10.7979L45.6692 11.9103L44.0853 15.0497L43.9027 15.3143L44.1478 15.1053L47.735 12.7499C48.0722 13.1435 48.5229 13.7022 48.8058 14.0697L43.1412 17.6403Z" fill="#E9E6EF"/>
<path id="Vector_6" fill-rule="evenodd" clip-rule="evenodd" d="M28.5 0C13.0365 0 0.5 12.5365 0.5 28C0.5 43.4635 13.0365 56 28.5 56C43.9635 56 56.5 43.4635 56.5 28C56.5 12.5365 43.9635 0 28.5 0ZM54.6792 28C54.6792 42.4577 42.9593 54.1792 28.5 54.1792C14.0407 54.1792 2.32079 42.4577 2.32079 28C2.32079 13.5423 14.0423 1.82079 28.5 1.82079C42.9577 1.82079 54.6792 13.5423 54.6792 28Z" fill="#E9E6EF"/>
</g>
<defs>
<clipPath id="clip0_117_4965">
<rect width="56" height="56" fill="white" transform="translate(0.5)"/>
</clipPath>
</defs>
</svg>
