<svg width="92" height="150" viewBox="0 0 92 150" fill="none" xmlns="http://www.w3.org/2000/svg">
<path fill-rule="evenodd" clip-rule="evenodd" d="M87.0544 143H87.0373C86.3096 143 85.6715 143.321 85.1401 143.781C85.0376 143.872 84.9096 143.924 84.8178 144.026C84.3078 144.596 84.0133 145.375 83.9492 146.226C83.9428 146.321 83.9001 146.404 83.9001 146.501C83.9001 146.933 83.9919 147.337 84.1221 147.717C84.1648 147.841 84.2181 147.948 84.2715 148.064C84.3867 148.314 84.5255 148.544 84.6919 148.755C84.773 148.86 84.8456 148.967 84.9373 149.059C85.1892 149.314 85.4666 149.537 85.7825 149.691H85.7846C86.1751 149.884 86.602 150 87.0544 150C88.4566 150 89.6026 148.964 90.0102 147.551C90.119 147.228 90.1937 146.891 90.1959 146.52C90.1959 146.513 90.2001 146.508 90.2001 146.501C90.2001 144.565 88.7916 143 87.0544 143ZM130.522 102.264C130.217 102.121 129.877 102.066 129.529 102.04C129.468 102.038 129.418 102 129.354 102H129.337C127.6 102 126.2 103.567 126.2 105.502C126.2 105.973 126.29 106.417 126.441 106.82C126.548 107.11 126.723 107.343 126.887 107.587C126.956 107.68 126.994 107.794 127.067 107.879C127.59 108.497 128.311 108.877 129.118 108.948C129.122 108.948 129.126 108.95 129.13 108.953V108.95C129.207 108.957 129.275 109 129.354 109C131.092 109 132.5 107.433 132.5 105.502C132.5 104.03 131.679 102.781 130.522 102.264ZM24.0544 41H24.0373C22.3001 41 20.9001 42.5672 20.9001 44.5C20.9001 46.4305 22.3172 48 24.0544 48C25.7895 48 27.2001 46.4305 27.2001 44.5C27.2001 42.5672 25.7895 41 24.0544 41ZM24.0544 123H24.0373C22.3001 123 20.9001 124.565 20.9001 126.501C20.9001 128.432 22.3172 130 24.0544 130C25.7895 130 27.2001 128.432 27.2001 126.501C27.2001 124.565 25.7895 123 24.0544 123ZM45.6545 69C47.3917 69 48.8002 67.4305 48.8002 65.5C48.8002 63.5648 47.3917 62 45.6545 62H45.6396C43.9002 62 42.5002 63.5648 42.5002 65.5C42.5002 67.4305 43.9173 69 45.6545 69ZM24.0544 20H24.0373C22.3001 20 20.9001 21.5672 20.9001 23.5C20.9001 25.4328 22.3172 27 24.0544 27C25.7895 27 27.2001 25.4328 27.2001 23.5C27.2001 21.5672 25.7895 20 24.0544 20ZM24.0544 81H24.0373C22.3001 81 20.9001 82.5672 20.9001 84.5C20.9001 86.4328 22.3172 88 24.0544 88C25.7895 88 27.2001 86.4328 27.2001 84.5C27.2001 82.5672 25.7895 81 24.0544 81ZM24.0544 102H24.0373C22.3001 102 20.9001 103.567 20.9001 105.502C20.9001 107.433 22.3172 109 24.0544 109C25.7895 109 27.2001 107.433 27.2001 105.502C27.2001 103.567 25.7895 102 24.0544 102ZM45.6545 27C47.3917 27 48.8002 25.4328 48.8002 23.5C48.8002 21.5672 47.3917 20 45.6545 20H45.6396C43.9002 20 42.5002 21.5672 42.5002 23.5C42.5002 25.4328 43.9173 27 45.6545 27ZM45.6545 48C47.3917 48 48.8002 46.4305 48.8002 44.5C48.8002 42.5672 47.3917 41 45.6545 41H45.6396C43.9002 41 42.5002 42.5672 42.5002 44.5C42.5002 46.4305 43.9173 48 45.6545 48ZM45.6545 7C47.3917 7 48.8002 5.43284 48.8002 3.5C48.8002 1.56716 47.3917 0 45.6545 0H45.6396C43.9002 0 42.5002 1.56716 42.5002 3.5C42.5002 5.43284 43.9173 7 45.6545 7ZM24.0544 62H24.0373C22.3001 62 20.9001 63.5648 20.9001 65.5C20.9001 67.4305 22.3172 69 24.0544 69C25.7895 69 27.2001 67.4305 27.2001 65.5C27.2001 63.5648 25.7895 62 24.0544 62ZM3.3566 81H3.33739C1.6002 81 0.200195 82.5672 0.200195 84.5C0.200195 86.4328 1.6194 88 3.3566 88C5.09379 88 6.5002 86.4328 6.5002 84.5C6.5002 82.5672 5.09379 81 3.3566 81ZM3.3566 62H3.33739C1.6002 62 0.200195 63.5648 0.200195 65.5C0.200195 67.4305 1.6194 69 3.3566 69C5.09379 69 6.5002 67.4305 6.5002 65.5C6.5002 63.5648 5.09379 62 3.3566 62ZM3.35553 102H3.33632C2.94137 102 2.57204 102.1 2.22832 102.252C2.05326 102.325 1.90809 102.444 1.75011 102.551C1.61775 102.643 1.48325 102.727 1.3637 102.843C1.15662 103.031 0.994367 103.249 0.836386 103.491C0.806498 103.541 0.77661 103.586 0.746722 103.641C0.575932 103.935 0.449975 104.244 0.36458 104.591L0.362445 104.593V104.595C0.28986 104.89 0.200195 105.179 0.200195 105.502C0.200195 106.88 0.936725 108.045 1.98068 108.615V108.618H1.98281C2.39911 108.843 2.84743 108.993 3.33845 108.995C3.34486 108.995 3.34913 109 3.35553 109C5.09332 109 6.5002 107.433 6.5002 105.502C6.5002 105.018 6.41267 104.557 6.25255 104.139C5.77647 102.883 4.6578 102 3.35553 102ZM108.655 62H108.637C106.9 62 105.5 63.5648 105.5 65.5C105.5 67.4305 106.917 69 108.655 69C110.392 69 111.8 67.4305 111.8 65.5C111.8 63.5648 110.392 62 108.655 62ZM3.35553 41H3.33632C2.97766 41 2.64676 41.0879 2.33506 41.2256C2.05113 41.3348 1.80348 41.4986 1.56438 41.6886C1.56224 41.6886 1.56224 41.6886 1.56011 41.691C0.755261 42.325 0.200195 43.3175 0.200195 44.5C0.200195 44.6496 0.259972 44.7754 0.277051 44.9227H0.274916C0.274916 44.9274 0.277051 44.9298 0.279185 44.9322C0.377389 45.7846 0.721104 46.5373 1.26977 47.0834C1.34449 47.1594 1.43842 47.2022 1.51741 47.2687C1.73303 47.4444 1.94011 47.6272 2.19416 47.7388C2.55069 47.9026 2.93923 48 3.35553 48C4.6578 48 5.77647 47.1191 6.25255 45.8606C6.41267 45.4427 6.5002 44.982 6.5002 44.5C6.5002 44.018 6.41267 43.5573 6.25255 43.1394C5.77647 41.8809 4.6578 41 3.35553 41ZM108.655 81H108.637C106.9 81 105.5 82.5672 105.5 84.5C105.5 86.4328 106.917 88 108.655 88C110.392 88 111.8 86.4328 111.8 84.5C111.8 82.5672 110.392 81 108.655 81ZM108.655 41H108.637C106.9 41 105.5 42.5672 105.5 44.5C105.5 46.4305 106.917 48 108.655 48C110.392 48 111.8 46.4305 111.8 44.5C111.8 42.5672 110.392 41 108.655 41ZM108.655 123H108.637C106.9 123 105.5 124.565 105.5 126.501C105.5 128.432 106.917 130 108.655 130C110.392 130 111.8 128.432 111.8 126.501C111.8 124.565 110.392 123 108.655 123ZM108.655 102H108.637C106.9 102 105.5 103.567 105.5 105.502C105.5 107.433 106.917 109 108.655 109C110.392 109 111.8 107.433 111.8 105.502C111.8 103.567 110.392 102 108.655 102ZM87.0555 7C88.7921 7 90.2001 5.43284 90.2001 3.5C90.2001 3.5 90.198 3.49763 90.198 3.49525C90.198 2.92775 90.0487 2.41248 89.8311 1.93758C89.8097 1.89247 89.782 1.85923 89.7585 1.81649C89.5303 1.36771 89.2188 0.994912 88.8412 0.695726H88.839C88.3249 0.289688 87.7318 0 87.0555 0H87.0384C85.3018 0 83.9001 1.56716 83.9001 3.5C83.9001 5.43284 85.3189 7 87.0555 7ZM108.655 20H108.637C106.9 20 105.5 21.5672 105.5 23.5C105.5 25.4328 106.917 27 108.655 27C110.392 27 111.8 25.4328 111.8 23.5C111.8 21.5672 110.392 20 108.655 20ZM87.0544 41H87.0373C85.3001 41 83.9001 42.5672 83.9001 44.5C83.9001 46.4305 85.3172 48 87.0544 48C88.7916 48 90.2001 46.4305 90.2001 44.5C90.2001 42.5672 88.7916 41 87.0544 41ZM87.0544 102H87.0373C85.3001 102 83.9001 103.567 83.9001 105.502C83.9001 107.433 85.3172 109 87.0544 109C88.7916 109 90.2001 107.433 90.2001 105.502C90.2001 103.567 88.7916 102 87.0544 102ZM87.0544 81H87.0373C85.3001 81 83.9001 82.5672 83.9001 84.5C83.9001 86.4328 85.3172 88 87.0544 88C88.7916 88 90.2001 86.4328 90.2001 84.5C90.2001 82.5672 88.7916 81 87.0544 81ZM87.0544 62H87.0373C85.3001 62 83.9001 63.5648 83.9001 65.5C83.9001 67.4305 85.3172 69 87.0544 69C88.7916 69 90.2001 67.4305 90.2001 65.5C90.2001 63.5648 88.7916 62 87.0544 62ZM87.0544 123H87.0373C85.3001 123 83.9001 124.565 83.9001 126.501C83.9001 128.432 85.3172 130 87.0544 130C88.7916 130 90.2001 128.432 90.2001 126.501C90.2001 124.565 88.7916 123 87.0544 123ZM45.6545 88C47.3917 88 48.8002 86.4328 48.8002 84.5C48.8002 82.5672 47.3917 81 45.6545 81H45.6396C43.9002 81 42.5002 82.5672 42.5002 84.5C42.5002 86.4328 43.9173 88 45.6545 88ZM47.8783 144.026C47.7844 143.922 47.6563 143.869 47.5518 143.781C47.0204 143.321 46.3823 143 45.6545 143H45.6374C43.9002 143 42.5002 144.565 42.5002 146.501C42.5002 147.451 42.8481 148.306 43.403 148.938C43.4051 148.941 43.4051 148.943 43.4073 148.943C43.9792 149.594 44.7731 150 45.6545 150C45.821 150 45.964 149.924 46.124 149.895C46.1262 149.895 46.1283 149.893 46.1304 149.893C46.8731 149.765 47.5219 149.385 47.9935 148.784C48.0704 148.691 48.1152 148.577 48.1813 148.475C48.3243 148.249 48.4759 148.036 48.5698 147.777C48.7106 147.39 48.7938 146.967 48.796 146.515C48.796 146.511 48.8002 146.508 48.8002 146.501C48.8002 145.613 48.478 144.824 47.9893 144.207C47.9445 144.15 47.9252 144.076 47.8783 144.026ZM128.128 47.7247C128.506 47.9027 128.92 48 129.356 48C129.815 48 130.244 47.8789 130.636 47.6819C130.649 47.6748 130.658 47.6629 130.671 47.6558C131.055 47.4564 131.386 47.1763 131.665 46.8298C132.174 46.2102 132.5 45.4032 132.5 44.5012C132.5 42.569 131.091 41 129.356 41H129.338C127.601 41 126.2 42.569 126.2 44.5012C126.2 45.9491 126.996 47.1929 128.128 47.7247ZM129.356 69C131.091 69 132.5 67.4305 132.5 65.5C132.5 63.5648 131.091 62 129.356 62H129.338C127.601 62 126.2 63.5648 126.2 65.5C126.2 67.4305 127.616 69 129.356 69ZM129.356 88C131.091 88 132.5 86.4328 132.5 84.5C132.5 82.5672 131.091 81 129.356 81H129.338C127.601 81 126.2 82.5672 126.2 84.5C126.2 86.4328 127.616 88 129.356 88ZM66.3545 41H66.3395C64.6023 41 63.2002 42.5672 63.2002 44.5C63.2002 46.4305 64.6173 48 66.3545 48C68.0917 48 69.5002 46.4305 69.5002 44.5C69.5002 42.5672 68.0917 41 66.3545 41ZM66.3545 20H66.3395C64.6023 20 63.2002 21.5672 63.2002 23.5C63.2002 25.4328 64.6173 27 66.3545 27C68.0917 27 69.5002 25.4328 69.5002 23.5C69.5002 21.5672 68.0917 20 66.3545 20ZM66.3545 0H66.3395C64.6023 0 63.2002 1.56716 63.2002 3.5C63.2002 5.43284 64.6173 7 66.3545 7C68.0917 7 69.5002 5.43284 69.5002 3.5C69.5002 1.56716 68.0917 0 66.3545 0ZM45.6545 130C47.3917 130 48.8002 128.432 48.8002 126.501C48.8002 124.565 47.3917 123 45.6545 123H45.6396C43.9002 123 42.5002 124.565 42.5002 126.501C42.5002 128.432 43.9173 130 45.6545 130ZM45.6545 109C47.3917 109 48.8002 107.433 48.8002 105.502C48.8002 103.567 47.3917 102 45.6545 102H45.6396C43.9002 102 42.5002 103.567 42.5002 105.502C42.5002 107.433 43.9173 109 45.6545 109ZM66.3545 62H66.3395C64.6023 62 63.2002 63.5648 63.2002 65.5C63.2002 67.4305 64.6173 69 66.3545 69C68.0917 69 69.5002 67.4305 69.5002 65.5C69.5002 63.5648 68.0917 62 66.3545 62ZM87.0544 20H87.0373C85.3001 20 83.9001 21.5672 83.9001 23.5C83.9001 25.4328 85.3172 27 87.0544 27C88.7916 27 90.2001 25.4328 90.2001 23.5C90.2001 21.5672 88.7916 20 87.0544 20ZM66.3545 123H66.3395C64.6023 123 63.2002 124.565 63.2002 126.501C63.2002 128.432 64.6173 130 66.3545 130C68.0917 130 69.5002 128.432 69.5002 126.501C69.5002 124.565 68.0917 123 66.3545 123ZM66.3545 143H66.3395C64.6023 143 63.2002 144.568 63.2002 146.501C63.2002 148.435 64.6173 150 66.3545 150C68.0917 150 69.5002 148.435 69.5002 146.501C69.5002 144.568 68.0917 143 66.3545 143ZM66.3545 102H66.3395C64.6023 102 63.2002 103.567 63.2002 105.502C63.2002 107.433 64.6173 109 66.3545 109C68.0917 109 69.5002 107.433 69.5002 105.502C69.5002 103.567 68.0917 102 66.3545 102ZM66.3545 81H66.3395C64.6023 81 63.2002 82.5672 63.2002 84.5C63.2002 86.4328 64.6173 88 66.3545 88C68.0917 88 69.5002 86.4328 69.5002 84.5C69.5002 82.5672 68.0917 81 66.3545 81Z" fill="#68D585"/>
</svg>
