<svg width="40" height="42" viewBox="0 0 40 42" fill="none" xmlns="http://www.w3.org/2000/svg">
<path opacity="0.4" d="M9.72952 7.56757C9.13245 7.56757 8.64844 7.19111 8.64844 6.72673V0.840841C8.64844 0.376457 9.13245 0 9.72952 0C10.3266 0 10.8106 0.376457 10.8106 0.840841V6.72673C10.8106 7.19111 10.3266 7.56757 9.72952 7.56757Z" fill="#68D585"/>
<path opacity="0.4" d="M29.189 7.56757C28.5919 7.56757 28.1079 7.19111 28.1079 6.72673V0.840841C28.1079 0.376457 28.5919 0 29.189 0C29.7861 0 30.2701 0.376457 30.2701 0.840841V6.72673C30.2701 7.19111 29.7861 7.56757 29.189 7.56757Z" fill="#68D585"/>
<path opacity="0.4" d="M22.4889 36.0739H2.65356C2.16506 36.0739 1.76904 35.679 1.76904 35.1919V14.9074C1.76904 14.4204 2.16506 14.0255 2.65356 14.0255H36.2654C36.7539 14.0255 37.1499 14.4204 37.1499 14.9074V25.3028C37.7961 25.725 38.39 26.222 38.9189 26.7836V6.08809C38.9189 5.11393 38.1269 4.32422 37.1499 4.32422H31.8428V7.85196C31.8428 9.31319 30.6547 10.4978 29.1892 10.4978C27.7237 10.4978 26.5356 9.31319 26.5356 7.85196V4.32422H12.3833V7.85196C12.3833 9.31319 11.1953 10.4978 9.72973 10.4978C8.26421 10.4978 7.07617 9.31319 7.07617 7.85196V4.32422H1.76904C0.792027 4.32422 0 5.11393 0 6.08809V36.0739C0 37.048 0.792027 37.8377 1.76904 37.8377H23.1833C22.8941 37.274 22.6615 36.6832 22.4889 36.0739Z" fill="#68D585"/>
<path fill-rule="evenodd" clip-rule="evenodd" d="M39.9999 32.9729C39.9999 37.4508 36.3698 41.081 31.8918 41.081C27.4138 41.081 23.7837 37.4508 23.7837 32.9729C23.7837 28.4949 27.4138 24.8647 31.8918 24.8647C36.3698 24.8647 39.9999 28.4949 39.9999 32.9729ZM31.8918 27.5674C31.3942 27.5674 30.9909 27.9708 30.9909 28.4683V32.9729C30.9909 33.4704 31.3942 33.8738 31.8918 33.8738H36.3963C36.8939 33.8738 37.2972 33.4704 37.2972 32.9729C37.2972 32.4753 36.8939 32.072 36.3963 32.072H32.7927V28.4683C32.7927 27.9708 32.3894 27.5674 31.8918 27.5674Z" fill="#68D585"/>
</svg>
