<svg width="88" height="24" viewBox="0 0 88 24" fill="none" xmlns="http://www.w3.org/2000/svg">
<g clip-path="url(#clip0_117_4957)">
<path d="M24.7512 13.5116C24.8572 12.8858 24.9249 12.2442 24.9249 11.5924C24.9249 11.0129 24.8662 10.4447 24.7873 9.88671H20.2314C20.8483 9.2756 22.2895 7.81841 23.7284 6.38043C23.2108 5.29827 22.5353 4.30309 21.738 3.43555L14.8151 10.3758C14.4824 10.7045 14.3008 11.1134 14.3008 11.5924C14.3008 12.06 14.4824 12.5288 14.8162 12.8541L21.7155 19.773C22.5184 18.9066 23.1916 17.9125 23.7126 16.8315C22.3537 15.4816 20.8201 14.0967 20.2314 13.5116H24.7512Z" fill="#E9E6EF"/>
<path d="M11.4822 11.5904C11.4822 11.1115 11.2983 10.7026 10.96 10.3739L4.03371 3.43359C3.23417 4.3079 2.56093 5.2963 2.04332 6.37846C3.48452 7.82322 4.9291 9.26799 5.54482 9.88588H0.982155C0.904343 10.4428 0.845703 11.011 0.845703 11.5904C0.845703 12.2422 0.914493 12.885 1.01486 13.5096H5.54482C4.96067 14.0959 3.41798 15.4751 2.05911 16.8295C2.58349 17.9106 3.25334 18.9024 4.05852 19.771L10.96 12.8533C11.2938 12.5269 11.4822 12.0581 11.4822 11.5904Z" fill="#E9E6EF"/>
<path d="M12.8853 13.0254C12.4162 13.0254 11.9753 13.2073 11.6449 13.5416L4.74902 20.4503C5.61171 21.2523 6.6007 21.9312 7.68103 22.4508C9.11321 21.0151 10.5454 19.585 11.1532 18.9728V23.507C11.7182 23.5928 12.2944 23.6482 12.8853 23.6482C13.5304 23.6482 14.1563 23.5804 14.7686 23.4867V18.9728C15.3561 19.5534 16.7364 21.0964 18.0818 22.4508C19.1666 21.9323 20.15 21.2523 21.0206 20.4503L14.1145 13.5462C13.7875 13.2073 13.3567 13.0254 12.8853 13.0254Z" fill="#E9E6EF"/>
<path d="M12.885 10.213C13.3676 10.213 13.8142 10.021 14.1446 9.67643L21.0585 2.75649C20.1744 1.93752 19.1685 1.24847 18.0656 0.716424C17.0563 1.73194 15.5711 3.32581 14.7513 4.14477V2.16006C14.7513 1.1581 13.9055 0.351562 12.8906 0.351562C11.8757 0.351562 11.1348 1.14454 11.1235 2.13521V4.14477C10.183 3.21059 8.64932 1.67094 7.70431 0.716424C6.60367 1.24847 5.59551 1.93752 4.70801 2.75649L11.6242 9.68434C11.9602 10.021 12.4068 10.213 12.885 10.213Z" fill="#E9E6EF"/>
<path d="M40.573 1.25195C46.3953 1.25195 50.146 5.34225 50.146 10.9135C50.146 14.0662 49.2811 16.4124 48.0226 17.7385L50.2881 19.7436L47.9944 21.9316L45.6116 19.8181C44.2414 20.6055 43.037 21.1228 40.4907 21.1228C34.6436 21.1228 30.8613 17.3228 30.8613 11.1767C30.8613 5.36597 34.4146 1.25195 40.573 1.25195ZM40.4625 17.7126C41.2722 17.7126 42.1732 17.5307 42.7573 17.2189L40.714 15.3912L42.9547 13.2292L44.9417 15.0309C45.4165 14.0391 45.7255 13.2585 45.8066 11.223C45.8066 7.20722 44.1568 4.7108 40.5155 4.7108C37.2734 4.7108 35.2006 6.90336 35.2006 11.1767C35.2006 15.5302 37.3839 17.7126 40.4625 17.7126Z" fill="#E9E6EF"/>
<path d="M56.6473 1.84766L64.4837 14.7421V1.84766H68.5175V20.6036H64.2086L56.1985 7.47534V20.6036H52.1445V1.84766H56.6473Z" fill="#E9E6EF"/>
<path d="M79.6545 1.84766C84.3909 1.84766 86.5414 3.62114 86.5414 6.74562C86.5414 8.28188 86.1162 9.53348 84.1033 10.5456C85.8681 11.1183 87.1549 12.5766 87.1549 14.9206C87.1549 17.6576 85.6167 20.6036 79.6286 20.6036H70.4424V1.84766H79.6545ZM74.5619 9.18782H79.5136C81.5288 9.18782 82.3689 8.54621 82.3689 7.16357C82.3689 5.86227 81.584 5.20145 78.9272 5.20145H74.5619V9.18782ZM74.5619 17.2408H79.429C81.6742 17.2408 82.7636 16.5382 82.7636 14.6359C82.7636 13.1787 81.7814 12.3936 79.5406 12.3936H74.5619V17.2408Z" fill="#E9E6EF"/>
</g>
<defs>
<clipPath id="clip0_117_4957">
<rect width="87" height="24" fill="white" transform="translate(0.5)"/>
</clipPath>
</defs>
</svg>
