<svg width="34" height="44" viewBox="0 0 34 44" fill="none" xmlns="http://www.w3.org/2000/svg">
<path d="M30.5882 22H8.26429C7.94775 22 7.65107 21.8411 7.46937 21.574L0.67514 11.574C0.44162 11.2299 0.44162 10.7721 0.67514 10.428L7.46937 0.428C7.65064 0.160186 7.94739 0.000409487 8.26429 0H30.5882C32.1963 0 33.5 1.34315 33.5 3V19C33.5 20.6569 32.1963 22 30.5882 22Z" fill="#68D585"/>
<path opacity="0.4" d="M33.3244 32.427L26.5302 22.427C26.3488 22.1596 26.0521 22.0002 25.7353 22H21.853V30C21.853 32.7614 19.6802 35 17 35H0.5V41C0.5 42.6569 1.80364 44 3.41177 44H25.7353C26.0524 44.0001 26.3495 43.8407 26.5312 43.573L33.3253 33.573C33.5586 33.2287 33.5582 32.7709 33.3244 32.427Z" fill="#68D585"/>
</svg>
