<svg width="41" height="40" viewBox="0 0 41 40" fill="none" xmlns="http://www.w3.org/2000/svg">
<path opacity="0.4" d="M35.9545 23.6363C35.4525 23.6363 35.0455 24.0433 35.0455 24.5454V38.1817H2.31818V10.909H6.86364C7.36571 10.909 7.77273 10.502 7.77273 9.99991C7.77273 9.49783 7.36571 9.09082 6.86364 9.09082H1.40909C0.907014 9.09082 0.5 9.49783 0.5 9.99991V39.0908C0.5 39.5929 0.907014 39.9999 1.40909 39.9999H35.9545C36.4566 39.9999 36.8636 39.5929 36.8636 39.0908V24.5454C36.8636 24.0433 36.4566 23.6363 35.9545 23.6363Z" fill="#68D585"/>
<path d="M40.1891 12.9492L25.6436 0.224499C25.3751 -0.0100925 24.9942 -0.0660628 24.6695 0.0813636C24.3448 0.22879 24.1364 0.552386 24.1364 0.908907V7.28309C12.8291 7.57939 7.77271 13.4982 7.77271 26.3584C7.77287 26.7481 8.02156 27.0944 8.39089 27.2191C8.48453 27.2511 8.58283 27.2674 8.6818 27.2673C8.96698 27.2686 9.23625 27.136 9.40907 26.9092C12.4327 22.9463 15.2936 20.1087 24.1364 20.0015V26.3638C24.1364 26.7203 24.3448 27.0439 24.6695 27.1914C24.9942 27.3388 25.3751 27.2828 25.6436 27.0482L40.1891 14.3235C40.3866 14.1509 40.5 13.9014 40.5 13.6391C40.5 13.3768 40.3866 13.1273 40.1891 12.9547V12.9492Z" fill="#68D585"/>
</svg>
