<svg width="32" height="269" viewBox="0 0 32 269" fill="none" xmlns="http://www.w3.org/2000/svg">
<g clip-path="url(#clip0_2295_139432)">
<circle cx="16" cy="16.7085" r="16" fill="#F64B4B"/>
<path d="M18.6124 22.7085H15.8944V15.2745C15.8944 15.0705 15.8944 14.8185 15.8944 14.5185C15.9064 14.2185 15.9184 13.9065 15.9304 13.5825C15.9424 13.2585 15.9544 12.9705 15.9664 12.7185C15.9064 12.7905 15.7744 12.9225 15.5704 13.1145C15.3784 13.2945 15.1984 13.4565 15.0304 13.6005L13.5544 14.7885L12.2404 13.1505L16.3804 9.8565H18.6124V22.7085Z" fill="white"/>
</g>
<path d="M16 32.7085L16 236.708" stroke="#D5D7DD" stroke-width="1.5" stroke-linecap="square" stroke-dasharray="0 13"/>
<g clip-path="url(#clip1_2295_139432)">
<circle cx="16" cy="124.708" r="16" fill="#68D585"/>
<path d="M20.8804 130.708H11.8984V128.818L15.1204 125.56C15.7684 124.888 16.2904 124.33 16.6864 123.886C17.0824 123.43 17.3704 123.022 17.5504 122.662C17.7304 122.29 17.8204 121.894 17.8204 121.474C17.8204 120.958 17.6764 120.574 17.3884 120.322C17.1124 120.07 16.7344 119.944 16.2544 119.944C15.7624 119.944 15.2824 120.058 14.8144 120.286C14.3464 120.514 13.8544 120.838 13.3384 121.258L11.8624 119.512C12.2344 119.188 12.6244 118.888 13.0324 118.612C13.4524 118.336 13.9324 118.114 14.4724 117.946C15.0244 117.766 15.6844 117.676 16.4524 117.676C17.2924 117.676 18.0124 117.832 18.6124 118.144C19.2244 118.444 19.6924 118.858 20.0164 119.386C20.3524 119.902 20.5204 120.49 20.5204 121.15C20.5204 121.69 20.4364 122.188 20.2684 122.644C20.1124 123.1 19.8784 123.544 19.5664 123.976C19.2664 124.396 18.8944 124.834 18.4504 125.29C18.0064 125.734 17.5024 126.22 16.9384 126.748L15.2824 128.296V128.422H20.8804V130.708Z" fill="white"/>
</g>
<g clip-path="url(#clip2_2295_139432)">
<circle cx="16" cy="252.708" r="16" fill="#473BF0"/>
<path d="M20.3764 248.736C20.3764 249.324 20.2504 249.834 19.9984 250.266C19.7584 250.698 19.4284 251.052 19.0084 251.328C18.6004 251.604 18.1324 251.808 17.6044 251.94V251.994C18.6364 252.114 19.4164 252.426 19.9444 252.93C20.4844 253.434 20.7544 254.112 20.7544 254.964C20.7544 255.708 20.5684 256.38 20.1964 256.98C19.8364 257.568 19.2724 258.036 18.5044 258.384C17.7484 258.72 16.7704 258.888 15.5704 258.888C14.8624 258.888 14.2024 258.828 13.5904 258.708C12.9784 258.588 12.4024 258.414 11.8624 258.186V255.882C12.4144 256.158 12.9904 256.368 13.5904 256.512C14.2024 256.656 14.7664 256.728 15.2824 256.728C16.2544 256.728 16.9324 256.56 17.3164 256.224C17.7124 255.888 17.9104 255.414 17.9104 254.802C17.9104 254.442 17.8204 254.142 17.6404 253.902C17.4604 253.65 17.1424 253.464 16.6864 253.344C16.2424 253.212 15.6184 253.146 14.8144 253.146H13.8424V251.058H14.8324C15.6244 251.058 16.2244 250.986 16.6324 250.842C17.0524 250.686 17.3344 250.482 17.4784 250.23C17.6344 249.966 17.7124 249.666 17.7124 249.33C17.7124 248.874 17.5684 248.52 17.2804 248.268C17.0044 248.004 16.5364 247.872 15.8764 247.872C15.4684 247.872 15.0964 247.926 14.7604 248.034C14.4244 248.13 14.1184 248.25 13.8424 248.394C13.5784 248.538 13.3444 248.676 13.1404 248.808L11.8804 246.936C12.2164 246.696 12.5884 246.48 12.9964 246.288C13.4164 246.096 13.8784 245.946 14.3824 245.838C14.8864 245.73 15.4504 245.676 16.0744 245.676C17.3944 245.676 18.4384 245.946 19.2064 246.486C19.9864 247.014 20.3764 247.764 20.3764 248.736Z" fill="white"/>
</g>
<defs>
<clipPath id="clip0_2295_139432">
<rect width="32" height="32" fill="white" transform="translate(0 0.708496)"/>
</clipPath>
<clipPath id="clip1_2295_139432">
<rect width="32" height="32" fill="white" transform="translate(0 108.708)"/>
</clipPath>
<clipPath id="clip2_2295_139432">
<rect width="32" height="32" fill="white" transform="translate(0 236.708)"/>
</clipPath>
</defs>
</svg>
