<svg width="42" height="36" viewBox="0 0 42 36" fill="none" xmlns="http://www.w3.org/2000/svg">
<path opacity="0.4" d="M39.2057 25.5089L32.3219 22.9242C32.0186 22.8109 31.8007 22.534 31.7555 22.2042L31.4026 19.6519C33.8664 18.2154 35.3931 15.5226 35.4004 12.6005V7.26543C35.3977 4.82211 33.63 2.7651 31.2815 2.47214L30.5207 0.900771C30.156 0.167143 29.3246 -0.178021 28.5698 0.0907884L23.8757 1.82325C22.4221 2.41492 21.2237 3.52778 20.5 4.95788C22.7686 6.90721 24.0782 9.79919 24.0726 12.8471V14.4005C24.2773 16.7494 25.0243 19.0135 26.251 21.0027C26.6673 21.6475 26.7953 22.4459 26.6024 23.1948C26.4095 23.9437 25.9143 24.5709 25.2429 24.9167C24.963 25.0541 24.6738 25.1702 24.3776 25.2641L25.5783 25.6358C27.7947 26.3137 29.3115 28.4216 29.3008 30.8089V35.1C29.2979 35.4073 29.2437 35.7118 29.1405 36H40.6286C41.1099 36 41.5 35.5971 41.5 35.1V28.8902C41.4967 27.3779 40.5808 26.0282 39.2057 25.5089Z" fill="#68D585"/>
<path d="M26.6 36H1.40003C0.902979 36 0.500036 35.5907 0.500036 35.0857V30.7264C0.492941 29.1087 1.53869 27.6809 3.06593 27.2229L9.03921 25.4025C9.37414 25.2994 9.61986 25.0084 9.66921 24.6565L9.81501 23.6279C5.95852 24.2231 3.79583 23.1534 3.69503 23.104C3.46387 22.9868 3.29346 22.7743 3.22716 22.5206C3.16086 22.267 3.20506 21.9966 3.34853 21.7783C4.81741 19.46 5.69434 16.8063 5.90002 14.0572V12.2286C5.90002 9.95097 6.8293 7.77522 8.46665 6.2193C10.104 4.66338 12.3029 3.86648 14.54 4.01832C18.8563 4.38387 22.1584 8.07952 22.1 12.4791V14.0572C22.3049 16.806 23.1808 19.4597 24.6488 21.7783C24.7922 21.9966 24.8364 22.267 24.7701 22.5206C24.7038 22.7743 24.5334 22.9868 24.3023 23.104C24.2033 23.1534 22.0406 24.2222 18.1823 23.6279L18.3281 24.6565C18.3774 25.0084 18.6232 25.2994 18.9581 25.4025L24.9341 27.2229C26.4613 27.6809 27.5071 29.1087 27.5 30.7264V35.0857C27.5 35.5907 27.097 36 26.6 36Z" fill="#68D585"/>
</svg>
