<svg width="26" height="26" viewBox="0 0 26 26" fill="none" xmlns="http://www.w3.org/2000/svg">
<path d="M11.9712 16.1962L9.96699 18.2003C9.54449 18.6228 8.87283 18.6228 8.43949 18.2112C8.32032 18.092 8.20116 17.9837 8.08199 17.8645C6.96616 16.7378 5.95866 15.557 5.05949 14.322C4.17116 13.087 3.45616 11.852 2.93616 10.6278C2.42699 9.39283 2.16699 8.21199 2.16699 7.08533C2.16699 6.34866 2.29699 5.64449 2.55699 4.99449C2.81699 4.33366 3.22866 3.72699 3.80283 3.18533C4.49616 2.50283 5.25449 2.16699 6.05616 2.16699C6.35949 2.16699 6.66283 2.23199 6.93366 2.36199C7.21533 2.49199 7.46449 2.68699 7.65949 2.96866L10.1728 6.51116C10.3678 6.78199 10.5087 7.03116 10.6062 7.26949C10.7037 7.49699 10.7578 7.72449 10.7578 7.93033C10.7578 8.19033 10.682 8.45033 10.5303 8.69949C10.3895 8.94866 10.1837 9.20866 9.92366 9.46866L9.10032 10.3245C8.98116 10.4437 8.92699 10.5845 8.92699 10.7578C8.92699 10.8445 8.93783 10.9203 8.95949 11.007C8.99199 11.0937 9.02449 11.1587 9.04616 11.2237C9.24116 11.5812 9.57699 12.047 10.0537 12.6103C10.5412 13.1737 11.0612 13.7478 11.6245 14.322C11.7328 14.4303 11.852 14.5387 11.9603 14.647C12.3937 15.0695 12.4045 15.7628 11.9712 16.1962Z" fill="white"/>
<path d="M23.8012 19.8575C23.8012 20.1608 23.7471 20.475 23.6387 20.7783C23.6062 20.865 23.5737 20.9516 23.5304 21.0383C23.3462 21.4283 23.1079 21.7966 22.7937 22.1433C22.2629 22.7283 21.6779 23.1508 21.0171 23.4216C21.0062 23.4216 20.9954 23.4325 20.9846 23.4325C20.3454 23.6925 19.6521 23.8333 18.9046 23.8333C17.7996 23.8333 16.6187 23.5733 15.3729 23.0425C14.1271 22.5116 12.8812 21.7966 11.6462 20.8975C11.2237 20.5833 10.8012 20.2691 10.4004 19.9333L13.9429 16.3908C14.2462 16.6183 14.5171 16.7916 14.7446 16.9108C14.7987 16.9325 14.8637 16.965 14.9396 16.9975C15.0262 17.03 15.1129 17.0408 15.2104 17.0408C15.3946 17.0408 15.5354 16.9758 15.6546 16.8566L16.4779 16.0441C16.7487 15.7733 17.0087 15.5675 17.2579 15.4375C17.5071 15.2858 17.7562 15.21 18.0271 15.21C18.2329 15.21 18.4496 15.2533 18.6879 15.3508C18.9262 15.4483 19.1754 15.5891 19.4462 15.7733L23.0321 18.3191C23.3137 18.5141 23.5087 18.7416 23.6279 19.0125C23.7362 19.2833 23.8012 19.5541 23.8012 19.8575Z" fill="white"/>
</svg>
