<svg width="28" height="28" viewBox="0 0 28 28" fill="none" xmlns="http://www.w3.org/2000/svg">
<g clip-path="url(#clip0_461_6112)">
<path d="M14 28C21.732 28 28 21.732 28 14C28 6.26801 21.732 0 14 0C6.26801 0 0 6.26801 0 14C0 21.732 6.26801 28 14 28Z" fill="#F0F0F0"/>
<path d="M18.8699 13.9999C18.8699 15.2173 16.6898 18.2608 14.0004 18.2608C11.311 18.2608 9.13086 15.2173 9.13086 13.9999C9.13086 11.3105 11.311 9.13037 14.0004 9.13037C16.6898 9.13037 18.8699 11.3105 18.8699 13.9999Z" fill="#D80027"/>
<path d="M18.8699 14C18.8699 16.6894 16.6898 18.8695 14.0004 18.8695C11.311 18.8695 9.13086 16.6894 9.13086 14" fill="#0052B4"/>
<path d="M19.1611 18.3042L20.4522 17.0132L21.3129 17.8739L20.0218 19.1649L19.1611 18.3042Z" fill="black"/>
<path d="M17.0088 20.4561L18.2998 19.165L19.1605 20.0257L17.8695 21.3168L17.0088 20.4561Z" fill="black"/>
<path d="M21.7432 20.8862L23.0342 19.5952L23.8949 20.4559L22.6039 21.7469L21.7432 20.8862Z" fill="black"/>
<path d="M19.5908 23.0386L20.8819 21.7475L21.7426 22.6082L20.4515 23.8993L19.5908 23.0386Z" fill="black"/>
<path d="M20.4521 19.5952L21.7432 18.3042L22.6039 19.1649L21.3128 20.4559L20.4521 19.5952Z" fill="black"/>
<path d="M18.3008 21.7471L19.5918 20.456L20.4525 21.3167L19.1615 22.6078L18.3008 21.7471Z" fill="black"/>
<path d="M21.749 9.69824L18.3063 6.25548L19.167 5.39478L22.6097 8.83754L21.749 9.69824Z" fill="black"/>
<path d="M18.3057 8.83789L17.0146 7.54686L17.8753 6.6862L19.1663 7.97723L18.3057 8.83789Z" fill="black"/>
<path d="M20.457 10.9897L19.166 9.69871L20.0267 8.83805L21.3177 10.1291L20.457 10.9897Z" fill="black"/>
<path d="M20.8877 6.25537L19.5967 4.96434L20.4574 4.10364L21.7484 5.39467L20.8877 6.25537Z" fill="black"/>
<path d="M23.04 8.40771L21.749 7.11668L22.6097 6.25598L23.9007 7.54701L23.04 8.40771Z" fill="black"/>
<path d="M4.96289 19.5928L8.40565 23.0355L7.54495 23.8962L4.10219 20.4535L4.96289 19.5928Z" fill="black"/>
<path d="M8.40527 20.4531L9.6963 21.7442L8.83564 22.6048L7.54461 21.3138L8.40527 20.4531Z" fill="black"/>
<path d="M6.25391 18.3018L7.54494 19.5928L6.68424 20.4535L5.39321 19.1625L6.25391 18.3018Z" fill="black"/>
<path d="M7.54492 17.0103L10.9877 20.453L10.127 21.3137L6.68422 17.871L7.54492 17.0103Z" fill="black"/>
<path d="M8.40527 4.96143L4.96251 8.40419L4.10181 7.54349L7.54457 4.10072L8.40527 4.96143Z" fill="black"/>
<path d="M9.69629 6.25244L6.25353 9.69521L5.39282 8.8345L8.83559 5.39174L9.69629 6.25244Z" fill="black"/>
<path d="M10.9893 7.54395L7.54649 10.9867L6.68583 10.126L10.1286 6.68328L10.9893 7.54395Z" fill="black"/>
</g>
<defs>
<clipPath id="clip0_461_6112">
<rect width="28" height="28" fill="white"/>
</clipPath>
</defs>
</svg>
