<svg xmlns="http://www.w3.org/2000/svg" width="24" height="24" viewBox="0 0 24 24" fill="none">
  <path d="M2.5 5C2.5 4.44772 2.94772 4 3.5 4H20.5C21.0523 4 21.5 4.44772 21.5 5C21.5 5.55228 21.0523 6 20.5 6H3.5C2.94771 6 2.5 5.55228 2.5 5ZM2.5 12C2.5 11.4477 2.94772 11 3.5 11H20.5C21.0523 11 21.5 11.4477 21.5 12C21.5 12.5523 21.0523 13 20.5 13H3.5C2.94771 13 2.5 12.5523 2.5 12ZM2.5 19C2.5 18.4477 2.94772 18 3.5 18H20.5C21.0523 18 21.5 18.4477 21.5 19C21.5 19.5523 21.0523 20 20.5 20H3.5C2.94771 20 2.5 19.5523 2.5 19Z" fill="white"/>
</svg>