<svg width="33" height="35" viewBox="0 0 33 35" fill="none" xmlns="http://www.w3.org/2000/svg">
<g id="Cursors/Hand (Pointing)">
<g id="Cursors / Hand (Pointing)" filter="url(#filter0_d_467_275)">
<path id="Outline" fill-rule="evenodd" clip-rule="evenodd" d="M9.15959 26.4104C9.44139 26.6643 9.63596 26.8466 10.2372 27.4178C10.826 27.9771 11.1108 28.2414 11.3712 28.4625C11.4798 28.554 11.5724 28.7986 11.6091 29.1622C11.6393 29.4614 11.6288 29.7951 11.5922 30.1166C11.5795 30.2278 11.5673 30.308 11.5603 30.3463C11.4818 30.7752 11.8088 31.1715 12.2448 31.1759C12.6373 31.1799 12.9397 31.1848 13.74 31.199C13.9402 31.2026 13.9402 31.2026 14.1412 31.2061C16.3167 31.2435 17.4279 31.2332 18.2253 31.133C19.0777 31.0258 19.9556 29.9963 20.7145 28.7046C21.3575 29.8476 22.2494 30.9637 23.1501 31.1089C23.4362 31.1546 23.7824 31.1687 24.1836 31.1595C24.4827 31.1526 24.7992 31.1329 25.1187 31.1044C25.3596 31.0829 25.5515 31.0612 25.6661 31.0464C26.0897 30.9914 26.3669 30.5746 26.2537 30.1628C26.2293 30.0738 26.19 29.9106 26.1504 29.705C26.1044 29.4668 26.0713 29.2341 26.0562 29.0221C26.0466 28.8877 26.0447 28.7661 26.0508 28.6609C26.0614 28.4775 26.0647 28.3749 26.0698 28.1377C26.0718 28.0494 26.0718 28.0494 26.0744 27.9721C26.0843 27.7192 26.1183 27.4791 26.2282 26.9554C26.2754 26.7282 26.5044 26.2932 26.8649 25.755C26.9723 25.5947 27.0897 25.4273 27.2155 25.2544C27.454 24.9267 27.7107 24.5956 27.9675 24.2787C28.1214 24.0889 28.2403 23.9469 28.3065 23.8698C28.8619 23.074 29.4542 21.7713 29.6718 21.0097C29.8807 20.2777 30.0478 18.9297 30.1505 17.6046C30.2068 16.853 30.2276 16.247 30.2276 15.2966C30.2277 15.1298 30.2277 15.1298 30.228 14.9922C30.2285 14.7667 30.2285 14.6814 30.2278 14.576C30.2258 14.288 30.2174 14.0026 30.1896 13.2747C30.1297 11.7491 29.2937 10.7628 28.0617 10.5725C27.0136 10.4107 25.7379 11.2812 25.7379 11.2812C25.7379 11.2812 25.4539 10.3009 25.2621 9.99832C24.9505 9.51204 24.1481 8.89239 23.5346 8.77168C22.9037 8.64916 22.1557 8.66271 21.4689 8.78419C20.8674 8.89182 20.2682 9.42887 19.9217 10.0081C19.6737 10.4214 19.9069 9.98622 19.6589 9.55874C19.3157 8.96995 18.5164 8.4427 17.7553 8.28707C17.1104 8.15371 16.3715 8.2045 15.6967 8.40508C14.8285 8.66451 14.6902 9.3252 14.6557 9.13604C14.5402 8.50185 14.5296 8.54352 14.4576 8.09111C14.1903 6.41247 13.8911 5.25098 13.4375 4.23746C13.4636 4.29573 13.2714 3.85843 13.2014 3.70764C13.0803 3.44654 12.9593 3.21021 12.8264 2.98291C12.4167 2.28232 11.9472 1.75777 11.3581 1.45978C10.3351 0.941727 8.8017 1.19385 8.07488 2.04224C7.35308 2.88537 7.23273 4.29504 7.41451 6.03944C7.48393 6.71672 7.72723 7.95318 7.94785 8.86718C8.02586 9.18441 8.09421 9.47372 8.21957 10.0081C8.24113 10.099 8.24113 10.099 8.26287 10.19C8.35985 10.5944 8.44489 10.9272 8.54642 11.2924C8.53576 11.2543 8.72832 11.9376 8.76933 12.0888C8.78298 12.1392 8.78298 12.1392 8.79649 12.1899C8.87304 12.4783 8.94788 12.7892 9.0648 13.308C9.12878 13.5933 9.19122 13.8981 9.25229 14.2211C9.41886 15.1022 9.41968 14.9188 9.25934 14.7309C9.14858 14.6011 9.04441 14.4832 8.94377 14.3745C8.7567 14.1726 8.58473 14.0056 8.42147 13.8724C7.23198 12.8992 6.5031 12.4692 5.50244 12.3747C3.86103 12.217 2.30332 13.3764 2.06909 14.9412C1.92504 15.9007 1.97145 16.3423 2.41529 17.1902C2.65953 17.6483 3.07267 18.2016 3.84353 19.1539C3.8907 19.2122 3.8907 19.2122 3.93785 19.2703C4.88406 20.4363 4.98714 20.5659 5.21212 20.8917C5.82029 21.7742 7.30078 24.3082 7.56991 24.6484L9.15959 26.4104Z" fill="black"/>
<path id="Fill" fill-rule="evenodd" clip-rule="evenodd" d="M5.03057 18.3842C4.9839 18.3267 4.9839 18.3267 4.93737 18.2692C4.22995 17.3952 3.84203 16.8757 3.65944 16.5332C3.37291 15.9858 3.35732 15.8375 3.46058 15.1497C3.58196 14.3388 4.45773 13.687 5.36988 13.7746C6.00102 13.8342 6.55242 14.1595 7.5325 14.9614C7.63862 15.0479 7.76656 15.1722 7.91291 15.3302C7.99947 15.4236 8.09128 15.5275 8.19041 15.6437C8.3393 15.8182 8.84109 16.4322 8.76719 16.3428C8.8762 16.4739 8.95416 16.5755 9.04322 16.6999C9.21967 16.9518 9.31894 17.0917 9.45337 17.2709C9.39034 17.1868 9.85599 17.8305 9.9546 17.9246C10.477 18.4232 11.2334 18.0033 11.186 17.3388C11.1781 17.2278 11.152 17.108 11.0976 16.8988C10.8822 15.3627 10.8068 14.8697 10.6348 13.9599C10.571 13.6219 10.5054 13.3018 10.4376 12.9995C10.3169 12.4641 10.2382 12.1369 10.1564 11.8291C10.1419 11.7746 10.1419 11.7746 10.1273 11.7206C10.0842 11.5616 9.88872 10.8681 9.90174 10.9146C9.80547 10.5683 9.72447 10.2513 9.63114 9.86208C9.60994 9.77341 9.60994 9.77341 9.58877 9.68415C9.46409 9.15257 9.39399 8.85584 9.3149 8.53426C9.10868 7.67987 8.87568 6.49577 8.81408 5.89486C8.67258 4.53695 8.77022 3.39326 9.14375 2.95695C9.43541 2.61651 10.262 2.4806 10.7238 2.71446C11.0259 2.86724 11.3277 3.20443 11.6133 3.69278C11.7213 3.8776 11.8227 4.07578 11.9265 4.29949C11.9894 4.43497 12.1758 4.85893 12.1548 4.81205C12.5491 5.69316 12.82 6.74493 13.0696 8.31214C13.1435 8.77651 13.2349 9.30258 13.3521 9.94621C13.3869 10.1371 13.3869 10.1371 13.4219 10.3271C13.987 13.3934 13.9456 13.161 13.9538 13.4055C13.9834 14.2976 15.3002 14.3185 15.3581 13.4278C15.3765 13.1453 15.37 12.8931 15.3374 12.1688C15.3328 12.0663 15.3328 12.0663 15.3283 11.9643C15.2998 11.2969 15.3015 10.913 15.3409 10.6948C15.4128 10.2968 15.77 9.85106 16.0991 9.75274C16.5611 9.61543 17.0673 9.58063 17.4729 9.66449C17.8611 9.74386 18.3141 10.0427 18.444 10.2657C18.6007 10.5357 18.735 10.947 18.8379 11.4569C18.921 11.8684 18.9782 12.3099 19.0184 12.7811C19.0309 12.9277 19.0391 13.0409 19.0516 13.2283C19.057 13.3068 19.057 13.3068 19.0623 13.3715C19.0653 13.404 19.0653 13.404 19.0726 13.4553C19.0783 13.4912 19.0783 13.4912 19.1051 13.5823C19.1188 13.8407 19.1188 13.8407 20.1567 13.9365C20.4666 13.5618 20.4666 13.5618 20.4581 13.4961C20.5089 13.2742 20.54 13.0269 20.5843 12.5621C20.6125 12.26 20.6268 12.1115 20.6435 11.9574C20.7125 11.3197 20.8001 10.9145 20.9069 10.7364C21.0395 10.5148 21.5065 10.2062 21.716 10.1687C22.242 10.0757 22.8196 10.0652 23.2656 10.1518C23.4676 10.1915 23.9604 10.572 24.077 10.7541C24.3165 11.132 24.5494 12.3504 24.6806 13.5593C24.66 13.6386 24.66 13.6386 24.9819 14.0985C26.0888 13.9723 26.0888 13.9723 26.0577 13.7725C26.0869 13.7013 26.1102 13.6189 26.1431 13.491C26.2222 13.1915 26.2746 13.0177 26.3527 12.8228C26.4068 12.688 26.4637 12.5728 26.5221 12.481C26.7484 12.1249 27.3342 11.883 27.8479 11.9623C28.3996 12.0475 28.7512 12.4623 28.7852 13.3291C28.8124 14.0424 28.8205 14.3166 28.8224 14.5858C28.8231 14.6851 28.823 14.7648 28.8225 14.9891C28.8222 15.1277 28.8222 15.1277 28.8221 15.2966C28.8221 16.2133 28.8025 16.7844 28.7491 17.4978C28.6542 18.7227 28.4939 20.0156 28.3204 20.6236C28.1433 21.2435 27.6145 22.4065 27.1958 23.0114C27.1661 23.0401 27.0387 23.1922 26.8758 23.3933C26.6047 23.7278 26.3335 24.0776 26.0793 24.4269C25.9432 24.6139 25.8155 24.7961 25.6974 24.9723C25.2405 25.6544 24.9473 26.2113 24.8525 26.6679C24.7279 27.2612 24.6834 27.5758 24.67 27.917C24.6667 28.0136 24.6667 28.0136 24.6647 28.1072C24.6599 28.3286 24.657 28.418 24.6477 28.5798C24.6378 28.7498 24.6406 28.9308 24.6542 29.1219C24.6737 29.3957 24.6542 29.7697 24.6542 29.7697C24.6542 29.7697 24.4168 29.7475 24.152 29.7536C23.8285 29.7611 23.5595 29.75 23.3736 29.7204C23.1054 29.6771 22.3811 28.7708 22.0102 28.0646C21.4435 26.9838 20.0676 27.0363 19.5037 27.9907C18.995 28.8566 18.2668 29.7105 18.0507 29.7377C17.3483 29.826 16.2606 29.8361 14.1661 29.8C13.9659 29.7965 13.9659 29.7965 13.7658 29.793C12.9616 29.7786 12.9926 29.9144 13.009 29.7697C13.056 29.3566 13.0507 29.434 13.009 29.021C12.9392 28.3285 12.7254 27.7638 12.2801 27.3888C12.0497 27.1931 11.7741 26.9374 11.2207 26.4117C10.5884 25.811 10.3904 25.6254 10.1463 25.4109L8.64388 23.7408C8.47896 23.5299 7.03133 21.0522 6.37047 20.0932C6.11339 19.7209 6.01722 19.6 5.03057 18.3842ZM22.8594 18.3912V24.8769C22.8594 25.8144 24.2657 25.8144 24.2657 24.8769V18.3912C24.2657 17.4537 22.8594 17.4537 22.8594 18.3912ZM19.0502 18.3902L19.0802 24.902C19.0845 25.8395 20.4907 25.8331 20.4864 24.8956L20.4564 18.3837C20.4521 17.4462 19.0459 17.4527 19.0502 18.3902ZM16.7831 24.8656L16.7437 18.4419C16.738 17.5044 15.3318 17.513 15.3375 18.4505L15.3769 24.8742C15.3826 25.8117 16.7889 25.8031 16.7831 24.8656Z" fill="white"/>
</g>
</g>
<defs>
<filter id="filter0_d_467_275" x="-0.00390625" y="0.191406" width="32.2324" height="34.0352" filterUnits="userSpaceOnUse" color-interpolation-filters="sRGB">
<feFlood flood-opacity="0" result="BackgroundImageFix"/>
<feColorMatrix in="SourceAlpha" type="matrix" values="0 0 0 0 0 0 0 0 0 0 0 0 0 0 0 0 0 0 127 0" result="hardAlpha"/>
<feOffset dy="1"/>
<feGaussianBlur stdDeviation="1"/>
<feColorMatrix type="matrix" values="0 0 0 0 0 0 0 0 0 0 0 0 0 0 0 0 0 0 0.298656 0"/>
<feBlend mode="normal" in2="BackgroundImageFix" result="effect1_dropShadow_467_275"/>
<feBlend mode="normal" in="SourceGraphic" in2="effect1_dropShadow_467_275" result="shape"/>
</filter>
</defs>
</svg>
