<svg width="22" height="22" viewBox="0 0 22 22" fill="none" xmlns="http://www.w3.org/2000/svg">
<g id="SVG" clip-path="url(#clip0_155_4489)">
<g id="Group">
<mask id="mask0_155_4489" style="mask-type:luminance" maskUnits="userSpaceOnUse" x="0" y="0" width="22" height="22">
<g id="Group_2">
<path id="Vector" d="M22 0H0V22H22V0Z" fill="white"/>
</g>
</mask>
<g mask="url(#mask0_155_4489)">
<g id="Group_3">
<path id="Vector_2" opacity="0.2" d="M4.51964 13.6849C4.38208 13.354 4.16356 13.0616 3.94714 12.8107C3.79897 12.6389 3.62973 12.4623 3.47315 12.2988C3.40602 12.2287 3.34123 12.1611 3.28141 12.0973C3.06794 11.8697 2.89564 11.6689 2.7762 11.4753C2.65898 11.2854 2.6123 11.1331 2.6123 10.9998C2.6123 10.8665 2.65898 10.7143 2.7762 10.5243C2.89564 10.3307 3.06794 10.13 3.28141 9.9023C3.34122 9.83851 3.40602 9.77089 3.47315 9.70082C3.62973 9.53738 3.79897 9.36072 3.94714 9.18889C4.16356 8.93794 4.38168 8.64655 4.51923 8.31571C4.65425 7.98942 4.7021 7.63131 4.72317 7.3062C4.73693 7.09391 4.74054 6.86005 4.7439 6.64246C4.74553 6.53626 4.74711 6.43392 4.74978 6.33987C4.76841 5.68312 4.84687 5.29088 5.06887 5.06887C5.29088 4.84687 5.68312 4.76841 6.33987 4.74978C6.43392 4.74711 6.53626 4.74553 6.64246 4.7439C6.86005 4.74054 7.09391 4.73693 7.3062 4.72317C7.63131 4.7021 7.98858 4.65459 8.31486 4.51957C8.64695 4.38211 8.93909 4.16393 9.19052 3.9473C9.36368 3.79812 9.54126 3.62785 9.70536 3.47052C9.77446 3.40427 9.84116 3.34032 9.90414 3.2812C10.1316 3.06762 10.3319 2.89541 10.5252 2.77603C10.7147 2.65892 10.8666 2.6123 10.9998 2.6123C11.1331 2.6123 11.2854 2.65898 11.4753 2.7762C11.6689 2.89564 11.8697 3.06794 12.0973 3.28141C12.1611 3.34123 12.2287 3.40602 12.2988 3.47315C12.4623 3.62973 12.6389 3.79897 12.8107 3.94714C13.0616 4.16356 13.353 4.38168 13.6839 4.51923C14.0103 4.65418 14.3686 4.7021 14.6938 4.72317C14.9061 4.73693 15.1399 4.74054 15.3575 4.7439C15.4637 4.74553 15.566 4.74711 15.6601 4.74978C16.3167 4.76841 16.7087 4.84684 16.9308 5.06887C17.1528 5.29089 17.2312 5.68297 17.2498 6.33956C17.2525 6.43359 17.2541 6.53591 17.2557 6.64211C17.259 6.85968 17.2627 7.09353 17.2764 7.30583C17.2975 7.63101 17.345 7.98829 17.48 8.3147C17.6175 8.64679 17.8356 8.93909 18.0523 9.19052C18.2015 9.36366 18.3718 9.54125 18.5291 9.70535C18.5953 9.77445 18.6593 9.84116 18.7184 9.90414C18.932 10.1316 19.1042 10.3319 19.2236 10.5252C19.3407 10.7147 19.3873 10.8666 19.3873 10.9998C19.3873 11.1331 19.3407 11.2854 19.2234 11.4753C19.1039 11.6689 18.9317 11.8697 18.7182 12.0973C18.6583 12.1611 18.5935 12.2287 18.5264 12.2988C18.3699 12.4623 18.2006 12.6389 18.0525 12.8107C17.8361 13.0616 17.618 13.353 17.4803 13.6839C17.3454 14.0103 17.2975 14.3686 17.2764 14.6938C17.2627 14.9061 17.259 15.14 17.2557 15.3575C17.2541 15.4637 17.2525 15.566 17.2498 15.6601C17.2312 16.3167 17.1528 16.7087 16.9308 16.9308C16.7087 17.1528 16.3167 17.2312 15.6601 17.2498C15.566 17.2525 15.4637 17.2541 15.3575 17.2557C15.14 17.259 14.9061 17.2627 14.6938 17.2764C14.3686 17.2975 14.0113 17.345 13.6849 17.48C13.354 17.6176 13.0616 17.8361 12.8107 18.0525C12.6389 18.2006 12.4623 18.3699 12.2988 18.5264C12.2287 18.5935 12.1611 18.6583 12.0973 18.7182C11.8697 18.9317 11.6689 19.1039 11.4753 19.2234C11.2854 19.3407 11.1331 19.3873 10.9998 19.3873C10.8665 19.3873 10.7143 19.3407 10.5243 19.2234C10.3307 19.1039 10.13 18.9317 9.9023 18.7182C9.83851 18.6583 9.77087 18.5935 9.7008 18.5264C9.53737 18.3699 9.36071 18.2006 9.18889 18.0525C8.93794 17.8361 8.64655 17.618 8.31571 17.4803C7.98942 17.3454 7.63131 17.2975 7.3062 17.2764C7.09391 17.2627 6.86005 17.259 6.64245 17.2557C6.53625 17.2541 6.43392 17.2525 6.33987 17.2498C5.68312 17.2312 5.29088 17.1528 5.06887 16.9308C4.84684 16.7087 4.76841 16.3167 4.74978 15.6601C4.74711 15.566 4.74553 15.4637 4.7439 15.3575C4.74054 15.1399 4.73693 14.9061 4.72317 14.6938C4.7021 14.3686 4.65459 14.0113 4.51964 13.6849Z" fill="#98A1B6" stroke="#98A1B6"/>
<path id="Vector_3" d="M4.68016 17.3198C3.88953 16.5293 4.41375 14.868 4.01157 13.8952C3.59391 12.8907 2.0625 12.0743 2.0625 11C2.0625 9.92578 3.59391 9.10938 4.01157 8.10477C4.41375 7.13281 3.88953 5.47078 4.68016 4.68016C5.47078 3.88953 7.13281 4.41375 8.10477 4.01157C9.11368 3.59391 9.92578 2.0625 11 2.0625C12.0743 2.0625 12.8907 3.59391 13.8952 4.01157C14.868 4.41375 16.5293 3.88953 17.3198 4.68016C18.1105 5.47078 17.5863 7.13195 17.9884 8.10477C18.4061 9.11368 19.9375 9.92578 19.9375 11C19.9375 12.0743 18.4061 12.8907 17.9884 13.8952C17.5863 14.868 18.1105 16.5293 17.3198 17.3198C16.5293 18.1105 14.868 17.5863 13.8952 17.9884C12.8907 18.4061 12.0743 19.9375 11 19.9375C9.92578 19.9375 9.10938 18.4061 8.10477 17.9884C7.13281 17.5863 5.47078 18.1105 4.68016 17.3198Z" stroke="#98A1B6" stroke-linecap="round" stroke-linejoin="round"/>
<path id="Vector_4" d="M7.5625 11.6875L9.625 13.75L14.4375 8.9375" stroke="#98A1B6" stroke-linecap="round" stroke-linejoin="round"/>
</g>
</g>
</g>
</g>
<defs>
<clipPath id="clip0_155_4489">
<rect width="22" height="22" fill="white"/>
</clipPath>
</defs>
</svg>
