<svg xmlns="http://www.w3.org/2000/svg" width="8" height="8" viewBox="0 0 8 8" fill="none">
  <g clip-path="url(#clip0_117_11635)">
    <path d="M6.5575 3.9975C3.9975 3.9975 3.9975 1.4375 3.9975 1.4375C3.9975 3.9975 1.4375 3.9975 1.4375 3.9975C3.9975 3.9975 3.9975 6.5575 3.9975 6.5575C3.9975 3.9975 6.5575 3.9975 6.5575 3.9975Z" fill="white"/>
    <path d="M4.00078 1.44078C4.00078 1.44078 4.00078 4.00078 6.56078 4.00078M4.00078 1.44078C4.00078 4.00078 1.44078 4.00078 1.44078 4.00078M4.00078 1.44078V0.800781M6.56078 4.00078C6.56078 4.00078 4.00078 4.00078 4.00078 6.56078M6.56078 4.00078H7.20078M1.44078 4.00078C4.00078 4.00078 4.00078 6.56078 4.00078 6.56078M1.44078 4.00078H0.800781M4.00078 6.56078V7.20078" stroke="white" stroke-width="0.8" stroke-linecap="round" stroke-linejoin="round"/>
  </g>
  <defs>
    <clipPath id="clip0_117_11635">
      <rect width="8" height="8" fill="white"/>
    </clipPath>
  </defs>
</svg>